<?xml version="1.0" encoding="UTF-8"?>
<svg xmlns="http://www.w3.org/2000/svg" viewBox="0 0 548.5 774.85">
  <defs>
    <style>
      .cls-1 {
        stroke-dasharray: 6.21 6.21;
      }

      .cls-1, .cls-2, .cls-3, .cls-4, .cls-5, .cls-6, .cls-7, .cls-8, .cls-9, .cls-10 {
        stroke-miterlimit: 10;
      }

      .cls-1, .cls-2, .cls-4, .cls-5, .cls-6, .cls-7, .cls-9, .cls-10 {
        fill: none;
      }

      .cls-1, .cls-4, .cls-10 {
        stroke: #a7a9ac;
        stroke-width: .11px;
      }

      .cls-2 {
        stroke: #939598;
        stroke-width: .3px;
      }

      .cls-11 {
        fill: #414042;
        font-size: 4.24px;
      }

      .cls-11, .cls-12, .cls-13, .cls-14, .cls-15 {
        font-family: ArialMT, Arial;
      }

      .cls-3, .cls-8 {
        stroke: #fff;
        stroke-width: .36px;
      }

      .cls-16 {
        font-family: CQMono, 'CQ Mono';
        font-size: 4.81px;
      }

      .cls-4 {
        stroke-dasharray: 5.62 5.62;
      }

      .cls-5 {
        stroke-width: .35px;
      }

      .cls-5, .cls-6, .cls-7, .cls-9 {
        stroke: #000;
      }

      .cls-6 {
        stroke-width: .5px;
      }

      .cls-7 {
        stroke-width: .68px;
      }

      .cls-8 {
        fill: #d1d3d4;
      }

      .cls-9 {
        stroke-width: .15px;
      }

      .cls-12 {
        font-size: 8px;
      }

      .cls-13 {
        font-size: 7px;
      }

      .cls-14 {
        font-size: 6px;
      }

      .cls-15 {
        font-size: 5px;
      }

      .cls-17 {
        fill: #939598;
      }
    </style>
  </defs>
  <g id="Reg_Marks" data-name="Reg Marks">
    <g>
      <g>
        <g>
          <rect x="137.86" y="195.04" width="14.76" height="14.76"/>
          <rect x="395.88" y="195.04" width="14.76" height="14.76"/>
        </g>
        <g>
          <rect x="137.86" y="575.75" width="14.76" height="14.76"/>
          <rect x="395.88" y="575.75" width="14.76" height="14.76"/>
        </g>
      </g>
      <rect x="270.56" y="195.04" width="7.38" height="7.38"/>
      <rect x="403.25" y="389.08" width="7.38" height="7.38" rx="3.69" ry="3.69"/>
      <rect x="137.86" y="389.08" width="7.38" height="7.38" rx="3.69" ry="3.69"/>
      <rect x="270.56" y="583.13" width="7.38" height="7.38" rx="3.69" ry="3.69"/>
    </g>
  </g>
  <g id="footer">
    <text class="cls-13" transform="translate(156.72 572.66)"><tspan x="0" y="0">CAMGRADER.COM</tspan></text>
    <g>
      <text class="cls-13" transform="translate(250.1 572.66)"><tspan x="0" y="0">25 QUESTIONS</tspan></text>
      <text class="cls-15" transform="translate(261.87 579.27)"><tspan x="0" y="0">SHEET v1.1</tspan></text>
    </g>
    <g>
      <rect class="cls-8" x="380.3" y="628.56" width="5.88" height="5.88"/>
      <rect class="cls-3" x="374.42" y="628.56" width="5.88" height="5.88"/>
      <rect class="cls-3" x="368.54" y="628.56" width="5.88" height="5.88"/>
      <rect class="cls-3" x="386.18" y="628.56" width="5.88" height="5.88"/>
      <rect class="cls-3" x="362.67" y="628.56" width="5.88" height="5.88"/>
      <rect class="cls-3" x="380.3" y="634.44" width="5.88" height="5.88"/>
      <rect class="cls-3" x="374.42" y="634.44" width="5.88" height="5.88"/>
      <rect class="cls-8" x="368.54" y="634.44" width="5.88" height="5.88"/>
      <rect class="cls-8" x="386.18" y="634.44" width="5.88" height="5.88"/>
      <rect class="cls-3" x="362.67" y="634.44" width="5.88" height="5.88"/>
      <rect class="cls-8" x="380.3" y="640.32" width="5.88" height="5.88"/>
      <rect class="cls-8" x="374.42" y="640.32" width="5.88" height="5.88"/>
      <rect class="cls-3" x="368.54" y="640.32" width="5.88" height="5.88"/>
      <rect class="cls-3" x="386.18" y="640.32" width="5.88" height="5.88"/>
      <rect class="cls-8" x="362.67" y="640.32" width="5.88" height="5.88"/>
      <rect class="cls-3" x="380.3" y="646.2" width="5.88" height="5.88"/>
      <rect class="cls-8" x="374.42" y="646.2" width="5.88" height="5.88"/>
      <rect class="cls-3" x="368.54" y="646.2" width="5.88" height="5.88"/>
      <rect class="cls-3" x="386.18" y="646.2" width="5.88" height="5.88"/>
      <rect class="cls-3" x="362.67" y="646.2" width="5.88" height="5.88"/>
      <rect class="cls-8" x="380.3" y="652.08" width="5.88" height="5.88"/>
      <rect class="cls-3" x="374.42" y="652.08" width="5.88" height="5.88"/>
      <rect class="cls-8" x="368.54" y="652.08" width="5.88" height="5.88"/>
      <rect class="cls-3" x="386.18" y="652.08" width="5.88" height="5.88"/>
      <rect class="cls-8" x="362.67" y="652.08" width="5.88" height="5.88"/>
      <rect class="cls-9" x="361.48" y="627.12" width="31.76" height="37.31"/>
      <text class="cls-16" transform="translate(370.32 662.87)"><tspan x="0" y="0">CAM-25</tspan></text>
    </g>
  </g>
  <g id="grid">
    <text class="cls-14" transform="translate(153 378.85)"><tspan x="0" y="0">1.</tspan></text>
    <text class="cls-14" transform="translate(153 399.24)"><tspan x="0" y="0">2.</tspan></text>
    <text class="cls-14" transform="translate(153 419.63)"><tspan x="0" y="0">3.</tspan></text>
    <text class="cls-14" transform="translate(153 440.02)"><tspan x="0" y="0">4.</tspan></text>
    <text class="cls-14" transform="translate(153 460.41)"><tspan x="0" y="0">5.</tspan></text>
    <text class="cls-14" transform="translate(153 480.8)"><tspan x="0" y="0">6.</tspan></text>
    <text class="cls-14" transform="translate(153 501.19)"><tspan x="0" y="0">7.</tspan></text>
    <text class="cls-14" transform="translate(153 521.58)"><tspan x="0" y="0">8.</tspan></text>
    <text class="cls-14" transform="translate(153 541.97)"><tspan x="0" y="0">9.</tspan></text>
    <text class="cls-14" transform="translate(234.98 378.85)"><tspan x="0" y="0">10.</tspan></text>
    <text class="cls-14" transform="translate(234.98 399.24)"><tspan x="0" y="0">11.</tspan></text>
    <text class="cls-14" transform="translate(234.98 419.63)"><tspan x="0" y="0">12.</tspan></text>
    <text class="cls-14" transform="translate(234.98 440.02)"><tspan x="0" y="0">13.</tspan></text>
    <text class="cls-14" transform="translate(234.98 460.41)"><tspan x="0" y="0">14.</tspan></text>
    <text class="cls-14" transform="translate(234.98 480.8)"><tspan x="0" y="0">15.</tspan></text>
    <text class="cls-14" transform="translate(234.98 501.19)"><tspan x="0" y="0">16.</tspan></text>
    <text class="cls-14" transform="translate(234.98 521.58)"><tspan x="0" y="0">17.</tspan></text>
    <text class="cls-14" transform="translate(234.98 541.97)"><tspan x="0" y="0">18.</tspan></text>
    <text class="cls-14" transform="translate(319.97 378.85)"><tspan x="0" y="0">19.</tspan></text>
    <text class="cls-14" transform="translate(319.97 399.24)"><tspan x="0" y="0">20.</tspan></text>
    <text class="cls-14" transform="translate(319.97 419.63)"><tspan x="0" y="0">21.</tspan></text>
    <text class="cls-14" transform="translate(319.97 440.02)"><tspan x="0" y="0">22.</tspan></text>
    <text class="cls-14" transform="translate(319.97 460.41)"><tspan x="0" y="0">23.</tspan></text>
    <text class="cls-14" transform="translate(319.97 480.8)"><tspan x="0" y="0">24.</tspan></text>
    <text class="cls-14" transform="translate(319.97 501.19)"><tspan x="0" y="0">25.</tspan></text>
  </g>
  <g id="grid_outline" data-name="grid outline">
    <circle class="cls-2" cx="167.08" cy="377.25" r="7.09"/>
    <circle class="cls-2" cx="167.08" cy="397.64" r="7.09"/>
    <circle class="cls-2" cx="167.08" cy="418.03" r="7.09"/>
    <circle class="cls-2" cx="167.08" cy="438.42" r="7.09"/>
    <circle class="cls-2" cx="167.08" cy="458.81" r="7.09"/>
    <circle class="cls-2" cx="167.08" cy="479.2" r="7.09"/>
    <circle class="cls-2" cx="167.08" cy="499.59" r="7.09"/>
    <circle class="cls-2" cx="167.08" cy="519.98" r="7.09"/>
    <circle class="cls-2" cx="167.08" cy="540.37" r="7.09"/>
    <circle class="cls-2" cx="184.09" cy="377.25" r="7.09"/>
    <circle class="cls-2" cx="184.09" cy="397.64" r="7.09"/>
    <circle class="cls-2" cx="184.09" cy="418.03" r="7.09"/>
    <circle class="cls-2" cx="184.09" cy="438.42" r="7.09"/>
    <circle class="cls-2" cx="184.09" cy="458.81" r="7.09"/>
    <circle class="cls-2" cx="184.09" cy="479.2" r="7.09"/>
    <circle class="cls-2" cx="184.09" cy="499.59" r="7.09"/>
    <circle class="cls-2" cx="184.09" cy="519.98" r="7.09"/>
    <circle class="cls-2" cx="184.09" cy="540.37" r="7.09"/>
    <circle class="cls-2" cx="201.1" cy="377.25" r="7.09"/>
    <circle class="cls-2" cx="201.1" cy="397.64" r="7.09"/>
    <circle class="cls-2" cx="201.1" cy="418.03" r="7.09"/>
    <circle class="cls-2" cx="201.1" cy="438.42" r="7.09"/>
    <circle class="cls-2" cx="201.1" cy="458.81" r="7.09"/>
    <circle class="cls-2" cx="201.1" cy="479.2" r="7.09"/>
    <circle class="cls-2" cx="201.1" cy="499.59" r="7.09"/>
    <circle class="cls-2" cx="201.1" cy="519.98" r="7.09"/>
    <circle class="cls-2" cx="201.1" cy="540.37" r="7.09"/>
    <circle class="cls-2" cx="218.11" cy="377.25" r="7.09"/>
    <circle class="cls-2" cx="218.11" cy="397.64" r="7.09"/>
    <circle class="cls-2" cx="218.11" cy="418.03" r="7.09"/>
    <circle class="cls-2" cx="218.11" cy="438.42" r="7.09"/>
    <circle class="cls-2" cx="218.11" cy="458.81" r="7.09"/>
    <circle class="cls-2" cx="218.11" cy="479.2" r="7.09"/>
    <circle class="cls-2" cx="218.11" cy="499.59" r="7.09"/>
    <circle class="cls-2" cx="218.11" cy="519.98" r="7.09"/>
    <circle class="cls-2" cx="218.11" cy="540.37" r="7.09"/>
    <circle class="cls-2" cx="252.4" cy="377.25" r="7.09"/>
    <circle class="cls-2" cx="251.96" cy="397.64" r="7.09"/>
    <circle class="cls-2" cx="252.4" cy="418.03" r="7.09"/>
    <circle class="cls-2" cx="252.4" cy="438.42" r="7.09"/>
    <circle class="cls-2" cx="252.4" cy="458.81" r="7.09"/>
    <circle class="cls-2" cx="252.4" cy="479.2" r="7.09"/>
    <circle class="cls-2" cx="252.4" cy="499.59" r="7.09"/>
    <circle class="cls-2" cx="252.4" cy="519.98" r="7.09"/>
    <circle class="cls-2" cx="252.4" cy="540.37" r="7.09"/>
    <circle class="cls-2" cx="269.86" cy="377.25" r="7.09"/>
    <circle class="cls-2" cx="269.41" cy="397.64" r="7.09"/>
    <circle class="cls-2" cx="269.86" cy="418.03" r="7.09"/>
    <circle class="cls-2" cx="269.86" cy="438.42" r="7.09"/>
    <circle class="cls-2" cx="269.86" cy="458.81" r="7.09"/>
    <circle class="cls-2" cx="269.86" cy="479.2" r="7.09"/>
    <circle class="cls-2" cx="269.86" cy="499.59" r="7.09"/>
    <circle class="cls-2" cx="269.86" cy="519.98" r="7.09"/>
    <circle class="cls-2" cx="269.86" cy="540.37" r="7.09"/>
    <circle class="cls-2" cx="287.31" cy="377.25" r="7.09"/>
    <circle class="cls-2" cx="286.86" cy="397.64" r="7.09"/>
    <circle class="cls-2" cx="287.31" cy="418.03" r="7.09"/>
    <circle class="cls-2" cx="287.31" cy="438.42" r="7.09"/>
    <circle class="cls-2" cx="287.31" cy="458.81" r="7.09"/>
    <circle class="cls-2" cx="287.31" cy="479.2" r="7.09"/>
    <circle class="cls-2" cx="287.31" cy="499.59" r="7.09"/>
    <circle class="cls-2" cx="287.31" cy="519.98" r="7.09"/>
    <circle class="cls-2" cx="287.31" cy="540.37" r="7.09"/>
    <circle class="cls-2" cx="304.76" cy="377.25" r="7.09"/>
    <circle class="cls-2" cx="304.32" cy="397.64" r="7.09"/>
    <circle class="cls-2" cx="304.76" cy="418.03" r="7.09"/>
    <circle class="cls-2" cx="304.76" cy="438.42" r="7.09"/>
    <circle class="cls-2" cx="304.76" cy="458.81" r="7.09"/>
    <circle class="cls-2" cx="304.76" cy="479.2" r="7.09"/>
    <circle class="cls-2" cx="304.76" cy="499.59" r="7.09"/>
    <circle class="cls-2" cx="304.76" cy="519.98" r="7.09"/>
    <circle class="cls-2" cx="304.76" cy="540.37" r="7.09"/>
    <circle class="cls-2" cx="337.39" cy="377.25" r="7.09"/>
    <circle class="cls-2" cx="337.39" cy="397.64" r="7.09"/>
    <circle class="cls-2" cx="337.39" cy="418.03" r="7.09"/>
    <circle class="cls-2" cx="337.39" cy="438.42" r="7.09"/>
    <circle class="cls-2" cx="337.39" cy="458.81" r="7.09"/>
    <circle class="cls-2" cx="337.39" cy="479.2" r="7.09"/>
    <circle class="cls-2" cx="337.39" cy="499.59" r="7.09"/>
    <circle class="cls-2" cx="354.4" cy="377.25" r="7.09"/>
    <circle class="cls-2" cx="354.4" cy="397.64" r="7.09"/>
    <circle class="cls-2" cx="354.4" cy="418.03" r="7.09"/>
    <circle class="cls-2" cx="354.4" cy="438.42" r="7.09"/>
    <circle class="cls-2" cx="354.4" cy="458.81" r="7.09"/>
    <circle class="cls-2" cx="354.4" cy="479.2" r="7.09"/>
    <circle class="cls-2" cx="354.4" cy="499.59" r="7.09"/>
    <circle class="cls-2" cx="371.41" cy="377.25" r="7.09"/>
    <circle class="cls-2" cx="371.41" cy="397.64" r="7.09"/>
    <circle class="cls-2" cx="371.41" cy="418.03" r="7.09"/>
    <circle class="cls-2" cx="371.41" cy="438.42" r="7.09"/>
    <circle class="cls-2" cx="371.41" cy="458.81" r="7.09"/>
    <circle class="cls-2" cx="371.41" cy="479.2" r="7.09"/>
    <circle class="cls-2" cx="371.41" cy="499.59" r="7.09"/>
    <circle class="cls-2" cx="388.41" cy="377.25" r="7.09"/>
    <circle class="cls-2" cx="388.41" cy="397.64" r="7.09"/>
    <circle class="cls-2" cx="388.41" cy="418.03" r="7.09"/>
    <circle class="cls-2" cx="388.41" cy="438.42" r="7.09"/>
    <circle class="cls-2" cx="388.41" cy="458.81" r="7.09"/>
    <circle class="cls-2" cx="388.41" cy="479.2" r="7.09"/>
    <circle class="cls-2" cx="388.41" cy="499.59" r="7.09"/>
    <circle class="cls-2" cx="246.74" cy="241.06" r="7.09"/>
    <circle class="cls-2" cx="263.58" cy="241.06" r="7.09"/>
    <circle class="cls-2" cx="280.43" cy="241.06" r="7.09"/>
    <circle class="cls-2" cx="297.28" cy="241.06" r="7.09"/>
    <circle class="cls-2" cx="314.12" cy="241.06" r="7.09"/>
    <circle class="cls-2" cx="330.97" cy="241.06" r="7.09"/>
    <circle class="cls-2" cx="347.82" cy="241.06" r="7.09"/>
    <circle class="cls-2" cx="364.66" cy="241.06" r="7.09"/>
    <circle class="cls-2" cx="381.51" cy="241.06" r="7.09"/>
    <circle class="cls-2" cx="398.36" cy="241.06" r="7.09"/>
    <circle class="cls-2" cx="246.74" cy="259.18" r="7.09"/>
    <circle class="cls-2" cx="263.58" cy="259.18" r="7.09"/>
    <circle class="cls-2" cx="280.43" cy="259.18" r="7.09"/>
    <circle class="cls-2" cx="297.28" cy="259.18" r="7.09"/>
    <circle class="cls-2" cx="314.12" cy="259.18" r="7.09"/>
    <circle class="cls-2" cx="330.97" cy="259.18" r="7.09"/>
    <circle class="cls-2" cx="347.82" cy="259.18" r="7.09"/>
    <circle class="cls-2" cx="364.66" cy="259.18" r="7.09"/>
    <circle class="cls-2" cx="381.51" cy="259.18" r="7.09"/>
    <circle class="cls-2" cx="398.36" cy="259.18" r="7.09"/>
    <circle class="cls-2" cx="246.74" cy="277.3" r="7.09"/>
    <circle class="cls-2" cx="263.58" cy="277.3" r="7.09"/>
    <circle class="cls-2" cx="280.43" cy="277.3" r="7.09"/>
    <circle class="cls-2" cx="297.28" cy="277.3" r="7.09"/>
    <circle class="cls-2" cx="314.12" cy="277.3" r="7.09"/>
    <circle class="cls-2" cx="330.97" cy="277.3" r="7.09"/>
    <circle class="cls-2" cx="347.82" cy="277.3" r="7.09"/>
    <circle class="cls-2" cx="364.66" cy="277.3" r="7.09"/>
    <circle class="cls-2" cx="381.51" cy="277.3" r="7.09"/>
    <circle class="cls-2" cx="398.36" cy="277.3" r="7.09"/>
    <circle class="cls-2" cx="246.74" cy="295.42" r="7.09"/>
    <circle class="cls-2" cx="263.58" cy="295.42" r="7.09"/>
    <circle class="cls-2" cx="280.43" cy="295.42" r="7.09"/>
    <circle class="cls-2" cx="297.28" cy="295.42" r="7.09"/>
    <circle class="cls-2" cx="314.12" cy="295.42" r="7.09"/>
    <circle class="cls-2" cx="330.97" cy="295.42" r="7.09"/>
    <circle class="cls-2" cx="347.82" cy="295.42" r="7.09"/>
    <circle class="cls-2" cx="364.66" cy="295.42" r="7.09"/>
    <circle class="cls-2" cx="381.51" cy="295.42" r="7.09"/>
    <circle class="cls-2" cx="398.36" cy="295.42" r="7.09"/>
    <circle class="cls-2" cx="246.74" cy="313.54" r="7.09"/>
    <circle class="cls-2" cx="263.58" cy="313.54" r="7.09"/>
    <circle class="cls-2" cx="280.43" cy="313.54" r="7.09"/>
    <circle class="cls-2" cx="297.28" cy="313.54" r="7.09"/>
    <circle class="cls-2" cx="314.12" cy="313.54" r="7.09"/>
    <circle class="cls-2" cx="330.97" cy="313.54" r="7.09"/>
    <circle class="cls-2" cx="347.82" cy="313.54" r="7.09"/>
    <circle class="cls-2" cx="364.66" cy="313.54" r="7.09"/>
    <circle class="cls-2" cx="381.51" cy="313.54" r="7.09"/>
    <circle class="cls-2" cx="398.36" cy="313.54" r="7.09"/>
    <circle class="cls-2" cx="246.74" cy="331.66" r="7.09"/>
    <circle class="cls-2" cx="263.58" cy="331.66" r="7.09"/>
    <circle class="cls-2" cx="280.43" cy="331.66" r="7.09"/>
    <circle class="cls-2" cx="297.28" cy="331.66" r="7.09"/>
    <circle class="cls-2" cx="314.12" cy="331.66" r="7.09"/>
    <circle class="cls-2" cx="330.97" cy="331.66" r="7.09"/>
    <circle class="cls-2" cx="347.82" cy="331.66" r="7.09"/>
    <circle class="cls-2" cx="364.66" cy="331.66" r="7.09"/>
    <circle class="cls-2" cx="381.51" cy="331.66" r="7.09"/>
    <circle class="cls-2" cx="398.36" cy="331.66" r="7.09"/>
  </g>
  <g id="grid_letters" data-name="grid letters">
    <path class="cls-17" d="M165.19,379.28l1.56-4.05h.58l1.66,4.05h-.61l-.47-1.23h-1.69l-.44,1.23h-.57ZM166.36,377.62h1.37l-.42-1.12c-.13-.34-.22-.62-.29-.84-.05.26-.12.52-.22.77l-.44,1.19Z"/>
    <path class="cls-17" d="M165.19,399.67l1.56-4.05h.58l1.66,4.05h-.61l-.47-1.23h-1.69l-.44,1.23h-.57ZM166.36,398.01h1.37l-.42-1.12c-.13-.34-.22-.62-.29-.84-.05.26-.12.52-.22.77l-.44,1.19Z"/>
    <path class="cls-17" d="M165.19,420.06l1.56-4.05h.58l1.66,4.05h-.61l-.47-1.23h-1.69l-.44,1.23h-.57ZM166.36,418.4h1.37l-.42-1.12c-.13-.34-.22-.62-.29-.84-.05.26-.12.52-.22.77l-.44,1.19Z"/>
    <path class="cls-17" d="M165.19,440.45l1.56-4.05h.58l1.66,4.05h-.61l-.47-1.23h-1.69l-.44,1.23h-.57ZM166.36,438.79h1.37l-.42-1.12c-.13-.34-.22-.62-.29-.84-.05.26-.12.52-.22.77l-.44,1.19Z"/>
    <path class="cls-17" d="M165.19,460.84l1.56-4.05h.58l1.66,4.05h-.61l-.47-1.23h-1.69l-.44,1.23h-.57ZM166.36,459.18h1.37l-.42-1.12c-.13-.34-.22-.62-.29-.84-.05.26-.12.52-.22.77l-.44,1.19Z"/>
    <path class="cls-17" d="M165.19,481.23l1.56-4.05h.58l1.66,4.05h-.61l-.47-1.23h-1.69l-.44,1.23h-.57ZM166.36,479.57h1.37l-.42-1.12c-.13-.34-.22-.62-.29-.84-.05.26-.12.52-.22.77l-.44,1.19Z"/>
    <path class="cls-17" d="M165.19,501.62l1.56-4.05h.58l1.66,4.05h-.61l-.47-1.23h-1.69l-.44,1.23h-.57ZM166.36,499.96h1.37l-.42-1.12c-.13-.34-.22-.62-.29-.84-.05.26-.12.52-.22.77l-.44,1.19Z"/>
    <path class="cls-17" d="M165.19,522.01l1.56-4.05h.58l1.66,4.05h-.61l-.47-1.23h-1.69l-.44,1.23h-.57ZM166.36,520.35h1.37l-.42-1.12c-.13-.34-.22-.62-.29-.84-.05.26-.12.52-.22.77l-.44,1.19Z"/>
    <path class="cls-17" d="M165.19,542.4l1.56-4.05h.58l1.66,4.05h-.61l-.47-1.23h-1.69l-.44,1.23h-.57ZM166.36,540.74h1.37l-.42-1.12c-.13-.34-.22-.62-.29-.84-.05.26-.12.52-.22.77l-.44,1.19Z"/>
    <path class="cls-17" d="M182.56,379.28v-4.05h1.52c.31,0,.56.04.74.12s.33.21.44.38.16.35.16.53c0,.17-.05.34-.14.49s-.24.28-.43.37c.24.07.43.19.56.37s.2.38.2.61c0,.19-.04.37-.12.53s-.18.29-.3.38-.27.16-.44.2-.4.07-.65.07h-1.54ZM183.1,376.93h.88c.24,0,.41-.02.51-.05.14-.04.24-.11.31-.2s.1-.21.1-.35c0-.13-.03-.25-.1-.35s-.16-.17-.28-.21-.33-.06-.62-.06h-.81v1.22ZM183.1,378.8h1.01c.17,0,.29,0,.36-.02.12-.02.23-.06.31-.11s.15-.13.2-.23.08-.21.08-.34c0-.15-.04-.28-.12-.39s-.18-.19-.32-.23-.33-.07-.59-.07h-.94v1.39Z"/>
    <path class="cls-17" d="M182.56,399.67v-4.05h1.52c.31,0,.56.04.74.12s.33.21.44.38.16.35.16.53c0,.17-.05.34-.14.49s-.24.28-.43.37c.24.07.43.19.56.37s.2.38.2.61c0,.19-.04.37-.12.53s-.18.29-.3.38-.27.16-.44.2-.4.07-.65.07h-1.54ZM183.1,397.32h.88c.24,0,.41-.02.51-.05.14-.04.24-.11.31-.2s.1-.21.1-.35c0-.13-.03-.25-.1-.35s-.16-.17-.28-.21-.33-.06-.62-.06h-.81v1.22ZM183.1,399.19h1.01c.17,0,.29,0,.36-.02.12-.02.23-.06.31-.11s.15-.13.2-.23.08-.21.08-.34c0-.15-.04-.28-.12-.39s-.18-.19-.32-.23-.33-.07-.59-.07h-.94v1.39Z"/>
    <path class="cls-17" d="M182.56,420.06v-4.05h1.52c.31,0,.56.04.74.12s.33.21.44.38.16.35.16.53c0,.17-.05.34-.14.49s-.24.28-.43.37c.24.07.43.19.56.37s.2.38.2.61c0,.19-.04.37-.12.53s-.18.29-.3.38-.27.16-.44.2-.4.07-.65.07h-1.54ZM183.1,417.71h.88c.24,0,.41-.02.51-.05.14-.04.24-.11.31-.2s.1-.21.1-.35c0-.13-.03-.25-.1-.35s-.16-.17-.28-.21-.33-.06-.62-.06h-.81v1.22ZM183.1,419.58h1.01c.17,0,.29,0,.36-.02.12-.02.23-.06.31-.11s.15-.13.2-.23.08-.21.08-.34c0-.15-.04-.28-.12-.39s-.18-.19-.32-.23-.33-.07-.59-.07h-.94v1.39Z"/>
    <path class="cls-17" d="M182.56,440.45v-4.05h1.52c.31,0,.56.04.74.12s.33.21.44.38.16.35.16.53c0,.17-.05.34-.14.49s-.24.28-.43.37c.24.07.43.19.56.37s.2.38.2.61c0,.19-.04.37-.12.53s-.18.29-.3.38-.27.16-.44.2-.4.07-.65.07h-1.54ZM183.1,438.1h.88c.24,0,.41-.02.51-.05.14-.04.24-.11.31-.2s.1-.21.1-.35c0-.13-.03-.25-.1-.35s-.16-.17-.28-.21-.33-.06-.62-.06h-.81v1.22ZM183.1,439.97h1.01c.17,0,.29,0,.36-.02.12-.02.23-.06.31-.11s.15-.13.2-.23.08-.21.08-.34c0-.15-.04-.28-.12-.39s-.18-.19-.32-.23-.33-.07-.59-.07h-.94v1.39Z"/>
    <path class="cls-17" d="M182.56,460.84v-4.05h1.52c.31,0,.56.04.74.12s.33.21.44.38.16.35.16.53c0,.17-.05.34-.14.49s-.24.28-.43.37c.24.07.43.19.56.37s.2.38.2.61c0,.19-.04.37-.12.53s-.18.29-.3.38-.27.16-.44.2-.4.07-.65.07h-1.54ZM183.1,458.49h.88c.24,0,.41-.02.51-.05.14-.04.24-.11.31-.2s.1-.21.1-.35c0-.13-.03-.25-.1-.35s-.16-.17-.28-.21-.33-.06-.62-.06h-.81v1.22ZM183.1,460.36h1.01c.17,0,.29,0,.36-.02.12-.02.23-.06.31-.11s.15-.13.2-.23.08-.21.08-.34c0-.15-.04-.28-.12-.39s-.18-.19-.32-.23-.33-.07-.59-.07h-.94v1.39Z"/>
    <path class="cls-17" d="M182.56,481.23v-4.05h1.52c.31,0,.56.04.74.12s.33.21.44.38.16.35.16.53c0,.17-.05.34-.14.49s-.24.28-.43.37c.24.07.43.19.56.37s.2.38.2.61c0,.19-.04.37-.12.53s-.18.29-.3.38-.27.16-.44.2-.4.07-.65.07h-1.54ZM183.1,478.88h.88c.24,0,.41-.02.51-.05.14-.04.24-.11.31-.2s.1-.21.1-.35c0-.13-.03-.25-.1-.35s-.16-.17-.28-.21-.33-.06-.62-.06h-.81v1.22ZM183.1,480.75h1.01c.17,0,.29,0,.36-.02.12-.02.23-.06.31-.11s.15-.13.2-.23.08-.21.08-.34c0-.15-.04-.28-.12-.39s-.18-.19-.32-.23-.33-.07-.59-.07h-.94v1.39Z"/>
    <path class="cls-17" d="M182.56,501.62v-4.05h1.52c.31,0,.56.04.74.12s.33.21.44.38.16.35.16.53c0,.17-.05.34-.14.49s-.24.28-.43.37c.24.07.43.19.56.37s.2.38.2.61c0,.19-.04.37-.12.53s-.18.29-.3.38-.27.16-.44.2-.4.07-.65.07h-1.54ZM183.1,499.27h.88c.24,0,.41-.02.51-.05.14-.04.24-.11.31-.2s.1-.21.1-.35c0-.13-.03-.25-.1-.35s-.16-.17-.28-.21-.33-.06-.62-.06h-.81v1.22ZM183.1,501.14h1.01c.17,0,.29,0,.36-.02.12-.02.23-.06.31-.11s.15-.13.2-.23.08-.21.08-.34c0-.15-.04-.28-.12-.39s-.18-.19-.32-.23-.33-.07-.59-.07h-.94v1.39Z"/>
    <path class="cls-17" d="M182.56,522.01v-4.05h1.52c.31,0,.56.04.74.12s.33.21.44.38.16.35.16.53c0,.17-.05.34-.14.49s-.24.28-.43.37c.24.07.43.19.56.37s.2.38.2.61c0,.19-.04.37-.12.53s-.18.29-.3.38-.27.16-.44.2-.4.07-.65.07h-1.54ZM183.1,519.66h.88c.24,0,.41-.02.51-.05.14-.04.24-.11.31-.2s.1-.21.1-.35c0-.13-.03-.25-.1-.35s-.16-.17-.28-.21-.33-.06-.62-.06h-.81v1.22ZM183.1,521.53h1.01c.17,0,.29,0,.36-.02.12-.02.23-.06.31-.11s.15-.13.2-.23.08-.21.08-.34c0-.15-.04-.28-.12-.39s-.18-.19-.32-.23-.33-.07-.59-.07h-.94v1.39Z"/>
    <path class="cls-17" d="M182.56,542.4v-4.05h1.52c.31,0,.56.04.74.12s.33.21.44.38.16.35.16.53c0,.17-.05.34-.14.49s-.24.28-.43.37c.24.07.43.19.56.37s.2.38.2.61c0,.19-.04.37-.12.53s-.18.29-.3.38-.27.16-.44.2-.4.07-.65.07h-1.54ZM183.1,540.05h.88c.24,0,.41-.02.51-.05.14-.04.24-.11.31-.2s.1-.21.1-.35c0-.13-.03-.25-.1-.35s-.16-.17-.28-.21-.33-.06-.62-.06h-.81v1.22ZM183.1,541.92h1.01c.17,0,.29,0,.36-.02.12-.02.23-.06.31-.11s.15-.13.2-.23.08-.21.08-.34c0-.15-.04-.28-.12-.39s-.18-.19-.32-.23-.33-.07-.59-.07h-.94v1.39Z"/>
    <path class="cls-17" d="M202.35,377.86l.54.14c-.11.44-.31.78-.61,1.01s-.65.35-1.07.35-.79-.09-1.06-.27-.48-.44-.62-.77-.21-.7-.21-1.09c0-.42.08-.79.24-1.1s.39-.55.69-.72.62-.24.98-.24c.41,0,.75.1,1.02.31s.47.5.58.87l-.53.12c-.09-.29-.23-.51-.41-.64s-.4-.2-.67-.2c-.31,0-.57.07-.78.22s-.36.35-.44.6-.13.51-.13.78c0,.34.05.64.15.9s.26.45.47.58.44.19.69.19c.3,0,.55-.09.76-.26s.35-.43.42-.77Z"/>
    <path class="cls-17" d="M202.35,398.25l.54.14c-.11.44-.31.78-.61,1.01s-.65.35-1.07.35-.79-.09-1.06-.27-.48-.44-.62-.77-.21-.7-.21-1.09c0-.42.08-.79.24-1.1s.39-.55.69-.72.62-.24.98-.24c.41,0,.75.1,1.02.31s.47.5.58.87l-.53.12c-.09-.29-.23-.51-.41-.64s-.4-.2-.67-.2c-.31,0-.57.07-.78.22s-.36.35-.44.6-.13.51-.13.78c0,.34.05.64.15.9s.26.45.47.58.44.19.69.19c.3,0,.55-.09.76-.26s.35-.43.42-.77Z"/>
    <path class="cls-17" d="M202.35,418.64l.54.14c-.11.44-.31.78-.61,1.01s-.65.35-1.07.35-.79-.09-1.06-.27-.48-.44-.62-.77-.21-.7-.21-1.09c0-.42.08-.79.24-1.1s.39-.55.69-.72.62-.24.98-.24c.41,0,.75.1,1.02.31s.47.5.58.87l-.53.12c-.09-.29-.23-.51-.41-.64s-.4-.2-.67-.2c-.31,0-.57.07-.78.22s-.36.35-.44.6-.13.51-.13.78c0,.34.05.64.15.9s.26.45.47.58.44.19.69.19c.3,0,.55-.09.76-.26s.35-.43.42-.77Z"/>
    <path class="cls-17" d="M202.35,439.03l.54.14c-.11.44-.31.78-.61,1.01s-.65.35-1.07.35-.79-.09-1.06-.27-.48-.44-.62-.77-.21-.7-.21-1.09c0-.42.08-.79.24-1.1s.39-.55.69-.72.62-.24.98-.24c.41,0,.75.1,1.02.31s.47.5.58.87l-.53.12c-.09-.29-.23-.51-.41-.64s-.4-.2-.67-.2c-.31,0-.57.07-.78.22s-.36.35-.44.6-.13.51-.13.78c0,.34.05.64.15.9s.26.45.47.58.44.19.69.19c.3,0,.55-.09.76-.26s.35-.43.42-.77Z"/>
    <path class="cls-17" d="M202.35,459.42l.54.14c-.11.44-.31.78-.61,1.01s-.65.35-1.07.35-.79-.09-1.06-.27-.48-.44-.62-.77-.21-.7-.21-1.09c0-.42.08-.79.24-1.1s.39-.55.69-.72.62-.24.98-.24c.41,0,.75.1,1.02.31s.47.5.58.87l-.53.12c-.09-.29-.23-.51-.41-.64s-.4-.2-.67-.2c-.31,0-.57.07-.78.22s-.36.35-.44.6-.13.51-.13.78c0,.34.05.64.15.9s.26.45.47.58.44.19.69.19c.3,0,.55-.09.76-.26s.35-.43.42-.77Z"/>
    <path class="cls-17" d="M202.35,479.81l.54.14c-.11.44-.31.78-.61,1.01s-.65.35-1.07.35-.79-.09-1.06-.27-.48-.44-.62-.77-.21-.7-.21-1.09c0-.42.08-.79.24-1.1s.39-.55.69-.72.62-.24.98-.24c.41,0,.75.1,1.02.31s.47.5.58.87l-.53.12c-.09-.29-.23-.51-.41-.64s-.4-.2-.67-.2c-.31,0-.57.07-.78.22s-.36.35-.44.6-.13.51-.13.78c0,.34.05.64.15.9s.26.45.47.58.44.19.69.19c.3,0,.55-.09.76-.26s.35-.43.42-.77Z"/>
    <path class="cls-17" d="M202.35,500.2l.54.14c-.11.44-.31.78-.61,1.01s-.65.35-1.07.35-.79-.09-1.06-.27-.48-.44-.62-.77-.21-.7-.21-1.09c0-.42.08-.79.24-1.1s.39-.55.69-.72.62-.24.98-.24c.41,0,.75.1,1.02.31s.47.5.58.87l-.53.12c-.09-.29-.23-.51-.41-.64s-.4-.2-.67-.2c-.31,0-.57.07-.78.22s-.36.35-.44.6-.13.51-.13.78c0,.34.05.64.15.9s.26.45.47.58.44.19.69.19c.3,0,.55-.09.76-.26s.35-.43.42-.77Z"/>
    <path class="cls-17" d="M202.35,520.59l.54.14c-.11.44-.31.78-.61,1.01s-.65.35-1.07.35-.79-.09-1.06-.27-.48-.44-.62-.77-.21-.7-.21-1.09c0-.42.08-.79.24-1.1s.39-.55.69-.72.62-.24.98-.24c.41,0,.75.1,1.02.31s.47.5.58.87l-.53.12c-.09-.29-.23-.51-.41-.64s-.4-.2-.67-.2c-.31,0-.57.07-.78.22s-.36.35-.44.6-.13.51-.13.78c0,.34.05.64.15.9s.26.45.47.58.44.19.69.19c.3,0,.55-.09.76-.26s.35-.43.42-.77Z"/>
    <path class="cls-17" d="M202.35,540.98l.54.14c-.11.44-.31.78-.61,1.01s-.65.35-1.07.35-.79-.09-1.06-.27-.48-.44-.62-.77-.21-.7-.21-1.09c0-.42.08-.79.24-1.1s.39-.55.69-.72.62-.24.98-.24c.41,0,.75.1,1.02.31s.47.5.58.87l-.53.12c-.09-.29-.23-.51-.41-.64s-.4-.2-.67-.2c-.31,0-.57.07-.78.22s-.36.35-.44.6-.13.51-.13.78c0,.34.05.64.15.9s.26.45.47.58.44.19.69.19c.3,0,.55-.09.76-.26s.35-.43.42-.77Z"/>
    <path class="cls-17" d="M216.43,379.28v-4.05h1.39c.31,0,.56.02.72.06.23.05.43.15.59.29.21.18.37.41.48.69s.16.6.16.96c0,.31-.04.58-.11.82s-.16.43-.28.59-.24.28-.37.37-.29.16-.48.2-.41.07-.65.07h-1.46ZM216.97,378.8h.86c.27,0,.48-.02.63-.07s.27-.12.36-.21c.13-.13.23-.3.3-.51s.11-.47.11-.78c0-.42-.07-.75-.21-.98s-.31-.38-.51-.46c-.14-.06-.37-.08-.69-.08h-.85v3.09Z"/>
    <path class="cls-17" d="M216.43,399.67v-4.05h1.39c.31,0,.56.02.72.06.23.05.43.15.59.29.21.18.37.41.48.69s.16.6.16.96c0,.31-.04.58-.11.82s-.16.43-.28.59-.24.28-.37.37-.29.16-.48.2-.41.07-.65.07h-1.46ZM216.97,399.19h.86c.27,0,.48-.02.63-.07s.27-.12.36-.21c.13-.13.23-.3.3-.51s.11-.47.11-.78c0-.42-.07-.75-.21-.98s-.31-.38-.51-.46c-.14-.06-.37-.08-.69-.08h-.85v3.09Z"/>
    <path class="cls-17" d="M216.43,420.06v-4.05h1.39c.31,0,.56.02.72.06.23.05.43.15.59.29.21.18.37.41.48.69s.16.6.16.96c0,.31-.04.58-.11.82s-.16.43-.28.59-.24.28-.37.37-.29.16-.48.2-.41.07-.65.07h-1.46ZM216.97,419.58h.86c.27,0,.48-.02.63-.07s.27-.12.36-.21c.13-.13.23-.3.3-.51s.11-.47.11-.78c0-.42-.07-.75-.21-.98s-.31-.38-.51-.46c-.14-.06-.37-.08-.69-.08h-.85v3.09Z"/>
    <path class="cls-17" d="M216.43,440.45v-4.05h1.39c.31,0,.56.02.72.06.23.05.43.15.59.29.21.18.37.41.48.69s.16.6.16.96c0,.31-.04.58-.11.82s-.16.43-.28.59-.24.28-.37.37-.29.16-.48.2-.41.07-.65.07h-1.46ZM216.97,439.97h.86c.27,0,.48-.02.63-.07s.27-.12.36-.21c.13-.13.23-.3.3-.51s.11-.47.11-.78c0-.42-.07-.75-.21-.98s-.31-.38-.51-.46c-.14-.06-.37-.08-.69-.08h-.85v3.09Z"/>
    <path class="cls-17" d="M216.43,460.84v-4.05h1.39c.31,0,.56.02.72.06.23.05.43.15.59.29.21.18.37.41.48.69s.16.6.16.96c0,.31-.04.58-.11.82s-.16.43-.28.59-.24.28-.37.37-.29.16-.48.2-.41.07-.65.07h-1.46ZM216.97,460.36h.86c.27,0,.48-.02.63-.07s.27-.12.36-.21c.13-.13.23-.3.3-.51s.11-.47.11-.78c0-.42-.07-.75-.21-.98s-.31-.38-.51-.46c-.14-.06-.37-.08-.69-.08h-.85v3.09Z"/>
    <path class="cls-17" d="M216.43,481.23v-4.05h1.39c.31,0,.56.02.72.06.23.05.43.15.59.29.21.18.37.41.48.69s.16.6.16.96c0,.31-.04.58-.11.82s-.16.43-.28.59-.24.28-.37.37-.29.16-.48.2-.41.07-.65.07h-1.46ZM216.97,480.75h.86c.27,0,.48-.02.63-.07s.27-.12.36-.21c.13-.13.23-.3.3-.51s.11-.47.11-.78c0-.42-.07-.75-.21-.98s-.31-.38-.51-.46c-.14-.06-.37-.08-.69-.08h-.85v3.09Z"/>
    <path class="cls-17" d="M216.43,501.62v-4.05h1.39c.31,0,.56.02.72.06.23.05.43.15.59.29.21.18.37.41.48.69s.16.6.16.96c0,.31-.04.58-.11.82s-.16.43-.28.59-.24.28-.37.37-.29.16-.48.2-.41.07-.65.07h-1.46ZM216.97,501.14h.86c.27,0,.48-.02.63-.07s.27-.12.36-.21c.13-.13.23-.3.3-.51s.11-.47.11-.78c0-.42-.07-.75-.21-.98s-.31-.38-.51-.46c-.14-.06-.37-.08-.69-.08h-.85v3.09Z"/>
    <path class="cls-17" d="M216.43,522.01v-4.05h1.39c.31,0,.56.02.72.06.23.05.43.15.59.29.21.18.37.41.48.69s.16.6.16.96c0,.31-.04.58-.11.82s-.16.43-.28.59-.24.28-.37.37-.29.16-.48.2-.41.07-.65.07h-1.46ZM216.97,521.53h.86c.27,0,.48-.02.63-.07s.27-.12.36-.21c.13-.13.23-.3.3-.51s.11-.47.11-.78c0-.42-.07-.75-.21-.98s-.31-.38-.51-.46c-.14-.06-.37-.08-.69-.08h-.85v3.09Z"/>
    <path class="cls-17" d="M216.43,542.4v-4.05h1.39c.31,0,.56.02.72.06.23.05.43.15.59.29.21.18.37.41.48.69s.16.6.16.96c0,.31-.04.58-.11.82s-.16.43-.28.59-.24.28-.37.37-.29.16-.48.2-.41.07-.65.07h-1.46ZM216.97,541.92h.86c.27,0,.48-.02.63-.07s.27-.12.36-.21c.13-.13.23-.3.3-.51s.11-.47.11-.78c0-.42-.07-.75-.21-.98s-.31-.38-.51-.46c-.14-.06-.37-.08-.69-.08h-.85v3.09Z"/>
    <path class="cls-17" d="M250.51,379.28l1.56-4.05h.58l1.66,4.05h-.61l-.47-1.23h-1.69l-.44,1.23h-.57ZM251.68,377.62h1.37l-.42-1.12c-.13-.34-.22-.62-.29-.84-.05.26-.12.52-.22.77l-.44,1.19Z"/>
    <path class="cls-17" d="M250.06,399.67l1.56-4.05h.58l1.66,4.05h-.61l-.47-1.23h-1.69l-.44,1.23h-.57ZM251.23,398.01h1.37l-.42-1.12c-.13-.34-.22-.62-.29-.84-.05.26-.12.52-.22.77l-.44,1.19Z"/>
    <path class="cls-17" d="M250.51,420.06l1.56-4.05h.58l1.66,4.05h-.61l-.47-1.23h-1.69l-.44,1.23h-.57ZM251.68,418.4h1.37l-.42-1.12c-.13-.34-.22-.62-.29-.84-.05.26-.12.52-.22.77l-.44,1.19Z"/>
    <path class="cls-17" d="M250.51,440.45l1.56-4.05h.58l1.66,4.05h-.61l-.47-1.23h-1.69l-.44,1.23h-.57ZM251.68,438.79h1.37l-.42-1.12c-.13-.34-.22-.62-.29-.84-.05.26-.12.52-.22.77l-.44,1.19Z"/>
    <path class="cls-17" d="M250.51,460.84l1.56-4.05h.58l1.66,4.05h-.61l-.47-1.23h-1.69l-.44,1.23h-.57ZM251.68,459.18h1.37l-.42-1.12c-.13-.34-.22-.62-.29-.84-.05.26-.12.52-.22.77l-.44,1.19Z"/>
    <path class="cls-17" d="M250.51,481.23l1.56-4.05h.58l1.66,4.05h-.61l-.47-1.23h-1.69l-.44,1.23h-.57ZM251.68,479.57h1.37l-.42-1.12c-.13-.34-.22-.62-.29-.84-.05.26-.12.52-.22.77l-.44,1.19Z"/>
    <path class="cls-17" d="M250.51,501.62l1.56-4.05h.58l1.66,4.05h-.61l-.47-1.23h-1.69l-.44,1.23h-.57ZM251.68,499.96h1.37l-.42-1.12c-.13-.34-.22-.62-.29-.84-.05.26-.12.52-.22.77l-.44,1.19Z"/>
    <path class="cls-17" d="M250.51,522.01l1.56-4.05h.58l1.66,4.05h-.61l-.47-1.23h-1.69l-.44,1.23h-.57ZM251.68,520.35h1.37l-.42-1.12c-.13-.34-.22-.62-.29-.84-.05.26-.12.52-.22.77l-.44,1.19Z"/>
    <path class="cls-17" d="M250.51,542.4l1.56-4.05h.58l1.66,4.05h-.61l-.47-1.23h-1.69l-.44,1.23h-.57ZM251.68,540.74h1.37l-.42-1.12c-.13-.34-.22-.62-.29-.84-.05.26-.12.52-.22.77l-.44,1.19Z"/>
    <path class="cls-17" d="M268.33,379.28v-4.05h1.52c.31,0,.56.04.74.12s.33.21.44.38.16.35.16.53c0,.17-.05.34-.14.49s-.24.28-.43.37c.24.07.43.19.56.37s.2.38.2.61c0,.19-.04.37-.12.53s-.18.29-.3.38-.27.16-.44.2-.4.07-.65.07h-1.54ZM268.86,376.93h.88c.24,0,.41-.02.51-.05.14-.04.24-.11.31-.2s.1-.21.1-.35c0-.13-.03-.25-.1-.35s-.16-.17-.28-.21-.33-.06-.62-.06h-.81v1.22ZM268.86,378.8h1.01c.17,0,.29,0,.36-.02.12-.02.23-.06.31-.11s.15-.13.2-.23.08-.21.08-.34c0-.15-.04-.28-.12-.39s-.18-.19-.32-.23-.33-.07-.59-.07h-.94v1.39Z"/>
    <path class="cls-17" d="M267.88,399.67v-4.05h1.52c.31,0,.56.04.74.12s.33.21.44.38.16.35.16.53c0,.17-.05.34-.14.49s-.24.28-.43.37c.24.07.43.19.56.37s.2.38.2.61c0,.19-.04.37-.12.53s-.18.29-.3.38-.27.16-.44.2-.4.07-.65.07h-1.54ZM268.42,397.32h.88c.24,0,.41-.02.51-.05.14-.04.24-.11.31-.2s.1-.21.1-.35c0-.13-.03-.25-.1-.35s-.16-.17-.28-.21-.33-.06-.62-.06h-.81v1.22ZM268.42,399.19h1.01c.17,0,.29,0,.36-.02.12-.02.23-.06.31-.11s.15-.13.2-.23.08-.21.08-.34c0-.15-.04-.28-.12-.39s-.18-.19-.32-.23-.33-.07-.59-.07h-.94v1.39Z"/>
    <path class="cls-17" d="M268.33,420.06v-4.05h1.52c.31,0,.56.04.74.12s.33.21.44.38.16.35.16.53c0,.17-.05.34-.14.49s-.24.28-.43.37c.24.07.43.19.56.37s.2.38.2.61c0,.19-.04.37-.12.53s-.18.29-.3.38-.27.16-.44.2-.4.07-.65.07h-1.54ZM268.86,417.71h.88c.24,0,.41-.02.51-.05.14-.04.24-.11.31-.2s.1-.21.1-.35c0-.13-.03-.25-.1-.35s-.16-.17-.28-.21-.33-.06-.62-.06h-.81v1.22ZM268.86,419.58h1.01c.17,0,.29,0,.36-.02.12-.02.23-.06.31-.11s.15-.13.2-.23.08-.21.08-.34c0-.15-.04-.28-.12-.39s-.18-.19-.32-.23-.33-.07-.59-.07h-.94v1.39Z"/>
    <path class="cls-17" d="M268.33,440.45v-4.05h1.52c.31,0,.56.04.74.12s.33.21.44.38.16.35.16.53c0,.17-.05.34-.14.49s-.24.28-.43.37c.24.07.43.19.56.37s.2.38.2.61c0,.19-.04.37-.12.53s-.18.29-.3.38-.27.16-.44.2-.4.07-.65.07h-1.54ZM268.86,438.1h.88c.24,0,.41-.02.51-.05.14-.04.24-.11.31-.2s.1-.21.1-.35c0-.13-.03-.25-.1-.35s-.16-.17-.28-.21-.33-.06-.62-.06h-.81v1.22ZM268.86,439.97h1.01c.17,0,.29,0,.36-.02.12-.02.23-.06.31-.11s.15-.13.2-.23.08-.21.08-.34c0-.15-.04-.28-.12-.39s-.18-.19-.32-.23-.33-.07-.59-.07h-.94v1.39Z"/>
    <path class="cls-17" d="M268.33,460.84v-4.05h1.52c.31,0,.56.04.74.12s.33.21.44.38.16.35.16.53c0,.17-.05.34-.14.49s-.24.28-.43.37c.24.07.43.19.56.37s.2.38.2.61c0,.19-.04.37-.12.53s-.18.29-.3.38-.27.16-.44.2-.4.07-.65.07h-1.54ZM268.86,458.49h.88c.24,0,.41-.02.51-.05.14-.04.24-.11.31-.2s.1-.21.1-.35c0-.13-.03-.25-.1-.35s-.16-.17-.28-.21-.33-.06-.62-.06h-.81v1.22ZM268.86,460.36h1.01c.17,0,.29,0,.36-.02.12-.02.23-.06.31-.11s.15-.13.2-.23.08-.21.08-.34c0-.15-.04-.28-.12-.39s-.18-.19-.32-.23-.33-.07-.59-.07h-.94v1.39Z"/>
    <path class="cls-17" d="M268.33,481.23v-4.05h1.52c.31,0,.56.04.74.12s.33.21.44.38.16.35.16.53c0,.17-.05.34-.14.49s-.24.28-.43.37c.24.07.43.19.56.37s.2.38.2.61c0,.19-.04.37-.12.53s-.18.29-.3.38-.27.16-.44.2-.4.07-.65.07h-1.54ZM268.86,478.88h.88c.24,0,.41-.02.51-.05.14-.04.24-.11.31-.2s.1-.21.1-.35c0-.13-.03-.25-.1-.35s-.16-.17-.28-.21-.33-.06-.62-.06h-.81v1.22ZM268.86,480.75h1.01c.17,0,.29,0,.36-.02.12-.02.23-.06.31-.11s.15-.13.2-.23.08-.21.08-.34c0-.15-.04-.28-.12-.39s-.18-.19-.32-.23-.33-.07-.59-.07h-.94v1.39Z"/>
    <path class="cls-17" d="M268.33,501.62v-4.05h1.52c.31,0,.56.04.74.12s.33.21.44.38.16.35.16.53c0,.17-.05.34-.14.49s-.24.28-.43.37c.24.07.43.19.56.37s.2.38.2.61c0,.19-.04.37-.12.53s-.18.29-.3.38-.27.16-.44.2-.4.07-.65.07h-1.54ZM268.86,499.27h.88c.24,0,.41-.02.51-.05.14-.04.24-.11.31-.2s.1-.21.1-.35c0-.13-.03-.25-.1-.35s-.16-.17-.28-.21-.33-.06-.62-.06h-.81v1.22ZM268.86,501.14h1.01c.17,0,.29,0,.36-.02.12-.02.23-.06.31-.11s.15-.13.2-.23.08-.21.08-.34c0-.15-.04-.28-.12-.39s-.18-.19-.32-.23-.33-.07-.59-.07h-.94v1.39Z"/>
    <path class="cls-17" d="M268.33,522.01v-4.05h1.52c.31,0,.56.04.74.12s.33.21.44.38.16.35.16.53c0,.17-.05.34-.14.49s-.24.28-.43.37c.24.07.43.19.56.37s.2.38.2.61c0,.19-.04.37-.12.53s-.18.29-.3.38-.27.16-.44.2-.4.07-.65.07h-1.54ZM268.86,519.66h.88c.24,0,.41-.02.51-.05.14-.04.24-.11.31-.2s.1-.21.1-.35c0-.13-.03-.25-.1-.35s-.16-.17-.28-.21-.33-.06-.62-.06h-.81v1.22ZM268.86,521.53h1.01c.17,0,.29,0,.36-.02.12-.02.23-.06.31-.11s.15-.13.2-.23.08-.21.08-.34c0-.15-.04-.28-.12-.39s-.18-.19-.32-.23-.33-.07-.59-.07h-.94v1.39Z"/>
    <path class="cls-17" d="M268.33,542.4v-4.05h1.52c.31,0,.56.04.74.12s.33.21.44.38.16.35.16.53c0,.17-.05.34-.14.49s-.24.28-.43.37c.24.07.43.19.56.37s.2.38.2.61c0,.19-.04.37-.12.53s-.18.29-.3.38-.27.16-.44.2-.4.07-.65.07h-1.54ZM268.86,540.05h.88c.24,0,.41-.02.51-.05.14-.04.24-.11.31-.2s.1-.21.1-.35c0-.13-.03-.25-.1-.35s-.16-.17-.28-.21-.33-.06-.62-.06h-.81v1.22ZM268.86,541.92h1.01c.17,0,.29,0,.36-.02.12-.02.23-.06.31-.11s.15-.13.2-.23.08-.21.08-.34c0-.15-.04-.28-.12-.39s-.18-.19-.32-.23-.33-.07-.59-.07h-.94v1.39Z"/>
    <path class="cls-17" d="M288.56,377.86l.54.14c-.11.44-.31.78-.61,1.01s-.65.35-1.07.35-.79-.09-1.06-.27-.48-.44-.62-.77-.21-.7-.21-1.09c0-.42.08-.79.24-1.1s.39-.55.69-.72.62-.24.98-.24c.41,0,.75.1,1.02.31s.47.5.58.87l-.53.12c-.09-.29-.23-.51-.41-.64s-.4-.2-.67-.2c-.31,0-.57.07-.78.22s-.36.35-.44.6-.13.51-.13.78c0,.34.05.64.15.9s.26.45.47.58.44.19.69.19c.3,0,.55-.09.76-.26s.35-.43.42-.77Z"/>
    <path class="cls-17" d="M288.12,398.25l.54.14c-.11.44-.31.78-.61,1.01s-.65.35-1.07.35-.79-.09-1.06-.27-.48-.44-.62-.77-.21-.7-.21-1.09c0-.42.08-.79.24-1.1s.39-.55.69-.72.62-.24.98-.24c.41,0,.75.1,1.02.31s.47.5.58.87l-.53.12c-.09-.29-.23-.51-.41-.64s-.4-.2-.67-.2c-.31,0-.57.07-.78.22s-.36.35-.44.6-.13.51-.13.78c0,.34.05.64.15.9s.26.45.47.58.44.19.69.19c.3,0,.55-.09.76-.26s.35-.43.42-.77Z"/>
    <path class="cls-17" d="M288.56,418.64l.54.14c-.11.44-.31.78-.61,1.01s-.65.35-1.07.35-.79-.09-1.06-.27-.48-.44-.62-.77-.21-.7-.21-1.09c0-.42.08-.79.24-1.1s.39-.55.69-.72.62-.24.98-.24c.41,0,.75.1,1.02.31s.47.5.58.87l-.53.12c-.09-.29-.23-.51-.41-.64s-.4-.2-.67-.2c-.31,0-.57.07-.78.22s-.36.35-.44.6-.13.51-.13.78c0,.34.05.64.15.9s.26.45.47.58.44.19.69.19c.3,0,.55-.09.76-.26s.35-.43.42-.77Z"/>
    <path class="cls-17" d="M288.56,439.03l.54.14c-.11.44-.31.78-.61,1.01s-.65.35-1.07.35-.79-.09-1.06-.27-.48-.44-.62-.77-.21-.7-.21-1.09c0-.42.08-.79.24-1.1s.39-.55.69-.72.62-.24.98-.24c.41,0,.75.1,1.02.31s.47.5.58.87l-.53.12c-.09-.29-.23-.51-.41-.64s-.4-.2-.67-.2c-.31,0-.57.07-.78.22s-.36.35-.44.6-.13.51-.13.78c0,.34.05.64.15.9s.26.45.47.58.44.19.69.19c.3,0,.55-.09.76-.26s.35-.43.42-.77Z"/>
    <path class="cls-17" d="M288.56,459.42l.54.14c-.11.44-.31.78-.61,1.01s-.65.35-1.07.35-.79-.09-1.06-.27-.48-.44-.62-.77-.21-.7-.21-1.09c0-.42.08-.79.24-1.1s.39-.55.69-.72.62-.24.98-.24c.41,0,.75.1,1.02.31s.47.5.58.87l-.53.12c-.09-.29-.23-.51-.41-.64s-.4-.2-.67-.2c-.31,0-.57.07-.78.22s-.36.35-.44.6-.13.51-.13.78c0,.34.05.64.15.9s.26.45.47.58.44.19.69.19c.3,0,.55-.09.76-.26s.35-.43.42-.77Z"/>
    <path class="cls-17" d="M288.56,479.81l.54.14c-.11.44-.31.78-.61,1.01s-.65.35-1.07.35-.79-.09-1.06-.27-.48-.44-.62-.77-.21-.7-.21-1.09c0-.42.08-.79.24-1.1s.39-.55.69-.72.62-.24.98-.24c.41,0,.75.1,1.02.31s.47.5.58.87l-.53.12c-.09-.29-.23-.51-.41-.64s-.4-.2-.67-.2c-.31,0-.57.07-.78.22s-.36.35-.44.6-.13.51-.13.78c0,.34.05.64.15.9s.26.45.47.58.44.19.69.19c.3,0,.55-.09.76-.26s.35-.43.42-.77Z"/>
    <path class="cls-17" d="M288.56,500.2l.54.14c-.11.44-.31.78-.61,1.01s-.65.35-1.07.35-.79-.09-1.06-.27-.48-.44-.62-.77-.21-.7-.21-1.09c0-.42.08-.79.24-1.1s.39-.55.69-.72.62-.24.98-.24c.41,0,.75.1,1.02.31s.47.5.58.87l-.53.12c-.09-.29-.23-.51-.41-.64s-.4-.2-.67-.2c-.31,0-.57.07-.78.22s-.36.35-.44.6-.13.51-.13.78c0,.34.05.64.15.9s.26.45.47.58.44.19.69.19c.3,0,.55-.09.76-.26s.35-.43.42-.77Z"/>
    <path class="cls-17" d="M288.56,520.59l.54.14c-.11.44-.31.78-.61,1.01s-.65.35-1.07.35-.79-.09-1.06-.27-.48-.44-.62-.77-.21-.7-.21-1.09c0-.42.08-.79.24-1.1s.39-.55.69-.72.62-.24.98-.24c.41,0,.75.1,1.02.31s.47.5.58.87l-.53.12c-.09-.29-.23-.51-.41-.64s-.4-.2-.67-.2c-.31,0-.57.07-.78.22s-.36.35-.44.6-.13.51-.13.78c0,.34.05.64.15.9s.26.45.47.58.44.19.69.19c.3,0,.55-.09.76-.26s.35-.43.42-.77Z"/>
    <path class="cls-17" d="M288.56,540.98l.54.14c-.11.44-.31.78-.61,1.01s-.65.35-1.07.35-.79-.09-1.06-.27-.48-.44-.62-.77-.21-.7-.21-1.09c0-.42.08-.79.24-1.1s.39-.55.69-.72.62-.24.98-.24c.41,0,.75.1,1.02.31s.47.5.58.87l-.53.12c-.09-.29-.23-.51-.41-.64s-.4-.2-.67-.2c-.31,0-.57.07-.78.22s-.36.35-.44.6-.13.51-.13.78c0,.34.05.64.15.9s.26.45.47.58.44.19.69.19c.3,0,.55-.09.76-.26s.35-.43.42-.77Z"/>
    <path class="cls-17" d="M303.09,379.28v-4.05h1.39c.31,0,.56.02.72.06.23.05.43.15.59.29.21.18.37.41.48.69s.16.6.16.96c0,.31-.04.58-.11.82s-.16.43-.28.59-.24.28-.37.37-.29.16-.48.2-.41.07-.65.07h-1.46ZM303.62,378.8h.86c.27,0,.48-.02.63-.07s.27-.12.36-.21c.13-.13.23-.3.3-.51s.11-.47.11-.78c0-.42-.07-.75-.21-.98s-.31-.38-.51-.46c-.14-.06-.37-.08-.69-.08h-.85v3.09Z"/>
    <path class="cls-17" d="M302.64,399.67v-4.05h1.39c.31,0,.56.02.72.06.23.05.43.15.59.29.21.18.37.41.48.69s.16.6.16.96c0,.31-.04.58-.11.82s-.16.43-.28.59-.24.28-.37.37-.29.16-.48.2-.41.07-.65.07h-1.46ZM303.18,399.19h.86c.27,0,.48-.02.63-.07s.27-.12.36-.21c.13-.13.23-.3.3-.51s.11-.47.11-.78c0-.42-.07-.75-.21-.98s-.31-.38-.51-.46c-.14-.06-.37-.08-.69-.08h-.85v3.09Z"/>
    <path class="cls-17" d="M303.09,420.06v-4.05h1.39c.31,0,.56.02.72.06.23.05.43.15.59.29.21.18.37.41.48.69s.16.6.16.96c0,.31-.04.58-.11.82s-.16.43-.28.59-.24.28-.37.37-.29.16-.48.2-.41.07-.65.07h-1.46ZM303.62,419.58h.86c.27,0,.48-.02.63-.07s.27-.12.36-.21c.13-.13.23-.3.3-.51s.11-.47.11-.78c0-.42-.07-.75-.21-.98s-.31-.38-.51-.46c-.14-.06-.37-.08-.69-.08h-.85v3.09Z"/>
    <path class="cls-17" d="M303.09,440.45v-4.05h1.39c.31,0,.56.02.72.06.23.05.43.15.59.29.21.18.37.41.48.69s.16.6.16.96c0,.31-.04.58-.11.82s-.16.43-.28.59-.24.28-.37.37-.29.16-.48.2-.41.07-.65.07h-1.46ZM303.62,439.97h.86c.27,0,.48-.02.63-.07s.27-.12.36-.21c.13-.13.23-.3.3-.51s.11-.47.11-.78c0-.42-.07-.75-.21-.98s-.31-.38-.51-.46c-.14-.06-.37-.08-.69-.08h-.85v3.09Z"/>
    <path class="cls-17" d="M303.09,460.84v-4.05h1.39c.31,0,.56.02.72.06.23.05.43.15.59.29.21.18.37.41.48.69s.16.6.16.96c0,.31-.04.58-.11.82s-.16.43-.28.59-.24.28-.37.37-.29.16-.48.2-.41.07-.65.07h-1.46ZM303.62,460.36h.86c.27,0,.48-.02.63-.07s.27-.12.36-.21c.13-.13.23-.3.3-.51s.11-.47.11-.78c0-.42-.07-.75-.21-.98s-.31-.38-.51-.46c-.14-.06-.37-.08-.69-.08h-.85v3.09Z"/>
    <path class="cls-17" d="M303.09,481.23v-4.05h1.39c.31,0,.56.02.72.06.23.05.43.15.59.29.21.18.37.41.48.69s.16.6.16.96c0,.31-.04.58-.11.82s-.16.43-.28.59-.24.28-.37.37-.29.16-.48.2-.41.07-.65.07h-1.46ZM303.62,480.75h.86c.27,0,.48-.02.63-.07s.27-.12.36-.21c.13-.13.23-.3.3-.51s.11-.47.11-.78c0-.42-.07-.75-.21-.98s-.31-.38-.51-.46c-.14-.06-.37-.08-.69-.08h-.85v3.09Z"/>
    <path class="cls-17" d="M303.09,501.62v-4.05h1.39c.31,0,.56.02.72.06.23.05.43.15.59.29.21.18.37.41.48.69s.16.6.16.96c0,.31-.04.58-.11.82s-.16.43-.28.59-.24.28-.37.37-.29.16-.48.2-.41.07-.65.07h-1.46ZM303.62,501.14h.86c.27,0,.48-.02.63-.07s.27-.12.36-.21c.13-.13.23-.3.3-.51s.11-.47.11-.78c0-.42-.07-.75-.21-.98s-.31-.38-.51-.46c-.14-.06-.37-.08-.69-.08h-.85v3.09Z"/>
    <path class="cls-17" d="M303.09,522.01v-4.05h1.39c.31,0,.56.02.72.06.23.05.43.15.59.29.21.18.37.41.48.69s.16.6.16.96c0,.31-.04.58-.11.82s-.16.43-.28.59-.24.28-.37.37-.29.16-.48.2-.41.07-.65.07h-1.46ZM303.62,521.53h.86c.27,0,.48-.02.63-.07s.27-.12.36-.21c.13-.13.23-.3.3-.51s.11-.47.11-.78c0-.42-.07-.75-.21-.98s-.31-.38-.51-.46c-.14-.06-.37-.08-.69-.08h-.85v3.09Z"/>
    <path class="cls-17" d="M303.09,542.4v-4.05h1.39c.31,0,.56.02.72.06.23.05.43.15.59.29.21.18.37.41.48.69s.16.6.16.96c0,.31-.04.58-.11.82s-.16.43-.28.59-.24.28-.37.37-.29.16-.48.2-.41.07-.65.07h-1.46ZM303.62,541.92h.86c.27,0,.48-.02.63-.07s.27-.12.36-.21c.13-.13.23-.3.3-.51s.11-.47.11-.78c0-.42-.07-.75-.21-.98s-.31-.38-.51-.46c-.14-.06-.37-.08-.69-.08h-.85v3.09Z"/>
    <path class="cls-17" d="M335.49,379.28l1.56-4.05h.58l1.66,4.05h-.61l-.47-1.23h-1.69l-.44,1.23h-.57ZM336.66,377.62h1.37l-.42-1.12c-.13-.34-.22-.62-.29-.84-.05.26-.12.52-.22.77l-.44,1.19Z"/>
    <path class="cls-17" d="M335.49,399.67l1.56-4.05h.58l1.66,4.05h-.61l-.47-1.23h-1.69l-.44,1.23h-.57ZM336.66,398.01h1.37l-.42-1.12c-.13-.34-.22-.62-.29-.84-.05.26-.12.52-.22.77l-.44,1.19Z"/>
    <path class="cls-17" d="M335.49,420.06l1.56-4.05h.58l1.66,4.05h-.61l-.47-1.23h-1.69l-.44,1.23h-.57ZM336.66,418.4h1.37l-.42-1.12c-.13-.34-.22-.62-.29-.84-.05.26-.12.52-.22.77l-.44,1.19Z"/>
    <path class="cls-17" d="M335.49,440.45l1.56-4.05h.58l1.66,4.05h-.61l-.47-1.23h-1.69l-.44,1.23h-.57ZM336.66,438.79h1.37l-.42-1.12c-.13-.34-.22-.62-.29-.84-.05.26-.12.52-.22.77l-.44,1.19Z"/>
    <path class="cls-17" d="M335.49,460.84l1.56-4.05h.58l1.66,4.05h-.61l-.47-1.23h-1.69l-.44,1.23h-.57ZM336.66,459.18h1.37l-.42-1.12c-.13-.34-.22-.62-.29-.84-.05.26-.12.52-.22.77l-.44,1.19Z"/>
    <path class="cls-17" d="M335.49,481.23l1.56-4.05h.58l1.66,4.05h-.61l-.47-1.23h-1.69l-.44,1.23h-.57ZM336.66,479.57h1.37l-.42-1.12c-.13-.34-.22-.62-.29-.84-.05.26-.12.52-.22.77l-.44,1.19Z"/>
    <path class="cls-17" d="M335.49,501.62l1.56-4.05h.58l1.66,4.05h-.61l-.47-1.23h-1.69l-.44,1.23h-.57ZM336.66,499.96h1.37l-.42-1.12c-.13-.34-.22-.62-.29-.84-.05.26-.12.52-.22.77l-.44,1.19Z"/>
    <path class="cls-17" d="M352.87,379.28v-4.05h1.52c.31,0,.56.04.74.12s.33.21.44.38.16.35.16.53c0,.17-.05.34-.14.49s-.24.28-.43.37c.24.07.43.19.56.37s.2.38.2.61c0,.19-.04.37-.12.53s-.18.29-.3.38-.27.16-.44.2-.4.07-.65.07h-1.54ZM353.4,376.93h.88c.24,0,.41-.02.51-.05.14-.04.24-.11.31-.2s.1-.21.1-.35c0-.13-.03-.25-.1-.35s-.16-.17-.28-.21-.33-.06-.62-.06h-.81v1.22ZM353.4,378.8h1.01c.17,0,.29,0,.36-.02.12-.02.23-.06.31-.11s.15-.13.2-.23.08-.21.08-.34c0-.15-.04-.28-.12-.39s-.18-.19-.32-.23-.33-.07-.59-.07h-.94v1.39Z"/>
    <path class="cls-17" d="M352.87,399.67v-4.05h1.52c.31,0,.56.04.74.12s.33.21.44.38.16.35.16.53c0,.17-.05.34-.14.49s-.24.28-.43.37c.24.07.43.19.56.37s.2.38.2.61c0,.19-.04.37-.12.53s-.18.29-.3.38-.27.16-.44.2-.4.07-.65.07h-1.54ZM353.4,397.32h.88c.24,0,.41-.02.51-.05.14-.04.24-.11.31-.2s.1-.21.1-.35c0-.13-.03-.25-.1-.35s-.16-.17-.28-.21-.33-.06-.62-.06h-.81v1.22ZM353.4,399.19h1.01c.17,0,.29,0,.36-.02.12-.02.23-.06.31-.11s.15-.13.2-.23.08-.21.08-.34c0-.15-.04-.28-.12-.39s-.18-.19-.32-.23-.33-.07-.59-.07h-.94v1.39Z"/>
    <path class="cls-17" d="M352.87,420.06v-4.05h1.52c.31,0,.56.04.74.12s.33.21.44.38.16.35.16.53c0,.17-.05.34-.14.49s-.24.28-.43.37c.24.07.43.19.56.37s.2.38.2.61c0,.19-.04.37-.12.53s-.18.29-.3.38-.27.16-.44.2-.4.07-.65.07h-1.54ZM353.4,417.71h.88c.24,0,.41-.02.51-.05.14-.04.24-.11.31-.2s.1-.21.1-.35c0-.13-.03-.25-.1-.35s-.16-.17-.28-.21-.33-.06-.62-.06h-.81v1.22ZM353.4,419.58h1.01c.17,0,.29,0,.36-.02.12-.02.23-.06.31-.11s.15-.13.2-.23.08-.21.08-.34c0-.15-.04-.28-.12-.39s-.18-.19-.32-.23-.33-.07-.59-.07h-.94v1.39Z"/>
    <path class="cls-17" d="M352.87,440.45v-4.05h1.52c.31,0,.56.04.74.12s.33.21.44.38.16.35.16.53c0,.17-.05.34-.14.49s-.24.28-.43.37c.24.07.43.19.56.37s.2.38.2.61c0,.19-.04.37-.12.53s-.18.29-.3.38-.27.16-.44.2-.4.07-.65.07h-1.54ZM353.4,438.1h.88c.24,0,.41-.02.51-.05.14-.04.24-.11.31-.2s.1-.21.1-.35c0-.13-.03-.25-.1-.35s-.16-.17-.28-.21-.33-.06-.62-.06h-.81v1.22ZM353.4,439.97h1.01c.17,0,.29,0,.36-.02.12-.02.23-.06.31-.11s.15-.13.2-.23.08-.21.08-.34c0-.15-.04-.28-.12-.39s-.18-.19-.32-.23-.33-.07-.59-.07h-.94v1.39Z"/>
    <path class="cls-17" d="M352.87,460.84v-4.05h1.52c.31,0,.56.04.74.12s.33.21.44.38.16.35.16.53c0,.17-.05.34-.14.49s-.24.28-.43.37c.24.07.43.19.56.37s.2.38.2.61c0,.19-.04.37-.12.53s-.18.29-.3.38-.27.16-.44.2-.4.07-.65.07h-1.54ZM353.4,458.49h.88c.24,0,.41-.02.51-.05.14-.04.24-.11.31-.2s.1-.21.1-.35c0-.13-.03-.25-.1-.35s-.16-.17-.28-.21-.33-.06-.62-.06h-.81v1.22ZM353.4,460.36h1.01c.17,0,.29,0,.36-.02.12-.02.23-.06.31-.11s.15-.13.2-.23.08-.21.08-.34c0-.15-.04-.28-.12-.39s-.18-.19-.32-.23-.33-.07-.59-.07h-.94v1.39Z"/>
    <path class="cls-17" d="M352.87,481.23v-4.05h1.52c.31,0,.56.04.74.12s.33.21.44.38.16.35.16.53c0,.17-.05.34-.14.49s-.24.28-.43.37c.24.07.43.19.56.37s.2.38.2.61c0,.19-.04.37-.12.53s-.18.29-.3.38-.27.16-.44.2-.4.07-.65.07h-1.54ZM353.4,478.88h.88c.24,0,.41-.02.51-.05.14-.04.24-.11.31-.2s.1-.21.1-.35c0-.13-.03-.25-.1-.35s-.16-.17-.28-.21-.33-.06-.62-.06h-.81v1.22ZM353.4,480.75h1.01c.17,0,.29,0,.36-.02.12-.02.23-.06.31-.11s.15-.13.2-.23.08-.21.08-.34c0-.15-.04-.28-.12-.39s-.18-.19-.32-.23-.33-.07-.59-.07h-.94v1.39Z"/>
    <path class="cls-17" d="M352.87,501.62v-4.05h1.52c.31,0,.56.04.74.12s.33.21.44.38.16.35.16.53c0,.17-.05.34-.14.49s-.24.28-.43.37c.24.07.43.19.56.37s.2.38.2.61c0,.19-.04.37-.12.53s-.18.29-.3.38-.27.16-.44.2-.4.07-.65.07h-1.54ZM353.4,499.27h.88c.24,0,.41-.02.51-.05.14-.04.24-.11.31-.2s.1-.21.1-.35c0-.13-.03-.25-.1-.35s-.16-.17-.28-.21-.33-.06-.62-.06h-.81v1.22ZM353.4,501.14h1.01c.17,0,.29,0,.36-.02.12-.02.23-.06.31-.11s.15-.13.2-.23.08-.21.08-.34c0-.15-.04-.28-.12-.39s-.18-.19-.32-.23-.33-.07-.59-.07h-.94v1.39Z"/>
    <path class="cls-17" d="M372.66,377.86l.54.14c-.11.44-.31.78-.61,1.01s-.65.35-1.07.35-.79-.09-1.06-.27-.48-.44-.62-.77-.21-.7-.21-1.09c0-.42.08-.79.24-1.1s.39-.55.69-.72.62-.24.98-.24c.41,0,.75.1,1.02.31s.47.5.58.87l-.53.12c-.09-.29-.23-.51-.41-.64s-.4-.2-.67-.2c-.31,0-.57.07-.78.22s-.36.35-.44.6-.13.51-.13.78c0,.34.05.64.15.9s.26.45.47.58.44.19.69.19c.3,0,.55-.09.76-.26s.35-.43.42-.77Z"/>
    <path class="cls-17" d="M372.66,398.25l.54.14c-.11.44-.31.78-.61,1.01s-.65.35-1.07.35-.79-.09-1.06-.27-.48-.44-.62-.77-.21-.7-.21-1.09c0-.42.08-.79.24-1.1s.39-.55.69-.72.62-.24.98-.24c.41,0,.75.1,1.02.31s.47.5.58.87l-.53.12c-.09-.29-.23-.51-.41-.64s-.4-.2-.67-.2c-.31,0-.57.07-.78.22s-.36.35-.44.6-.13.51-.13.78c0,.34.05.64.15.9s.26.45.47.58.44.19.69.19c.3,0,.55-.09.76-.26s.35-.43.42-.77Z"/>
    <path class="cls-17" d="M372.66,418.64l.54.14c-.11.44-.31.78-.61,1.01s-.65.35-1.07.35-.79-.09-1.06-.27-.48-.44-.62-.77-.21-.7-.21-1.09c0-.42.08-.79.24-1.1s.39-.55.69-.72.62-.24.98-.24c.41,0,.75.1,1.02.31s.47.5.58.87l-.53.12c-.09-.29-.23-.51-.41-.64s-.4-.2-.67-.2c-.31,0-.57.07-.78.22s-.36.35-.44.6-.13.51-.13.78c0,.34.05.64.15.9s.26.45.47.58.44.19.69.19c.3,0,.55-.09.76-.26s.35-.43.42-.77Z"/>
    <path class="cls-17" d="M372.66,439.03l.54.14c-.11.44-.31.78-.61,1.01s-.65.35-1.07.35-.79-.09-1.06-.27-.48-.44-.62-.77-.21-.7-.21-1.09c0-.42.08-.79.24-1.1s.39-.55.69-.72.62-.24.98-.24c.41,0,.75.1,1.02.31s.47.5.58.87l-.53.12c-.09-.29-.23-.51-.41-.64s-.4-.2-.67-.2c-.31,0-.57.07-.78.22s-.36.35-.44.6-.13.51-.13.78c0,.34.05.64.15.9s.26.45.47.58.44.19.69.19c.3,0,.55-.09.76-.26s.35-.43.42-.77Z"/>
    <path class="cls-17" d="M372.66,459.42l.54.14c-.11.44-.31.78-.61,1.01s-.65.35-1.07.35-.79-.09-1.06-.27-.48-.44-.62-.77-.21-.7-.21-1.09c0-.42.08-.79.24-1.1s.39-.55.69-.72.62-.24.98-.24c.41,0,.75.1,1.02.31s.47.5.58.87l-.53.12c-.09-.29-.23-.51-.41-.64s-.4-.2-.67-.2c-.31,0-.57.07-.78.22s-.36.35-.44.6-.13.51-.13.78c0,.34.05.64.15.9s.26.45.47.58.44.19.69.19c.3,0,.55-.09.76-.26s.35-.43.42-.77Z"/>
    <path class="cls-17" d="M372.66,479.81l.54.14c-.11.44-.31.78-.61,1.01s-.65.35-1.07.35-.79-.09-1.06-.27-.48-.44-.62-.77-.21-.7-.21-1.09c0-.42.08-.79.24-1.1s.39-.55.69-.72.62-.24.98-.24c.41,0,.75.1,1.02.31s.47.5.58.87l-.53.12c-.09-.29-.23-.51-.41-.64s-.4-.2-.67-.2c-.31,0-.57.07-.78.22s-.36.35-.44.6-.13.51-.13.78c0,.34.05.64.15.9s.26.45.47.58.44.19.69.19c.3,0,.55-.09.76-.26s.35-.43.42-.77Z"/>
    <path class="cls-17" d="M372.66,500.2l.54.14c-.11.44-.31.78-.61,1.01s-.65.35-1.07.35-.79-.09-1.06-.27-.48-.44-.62-.77-.21-.7-.21-1.09c0-.42.08-.79.24-1.1s.39-.55.69-.72.62-.24.98-.24c.41,0,.75.1,1.02.31s.47.5.58.87l-.53.12c-.09-.29-.23-.51-.41-.64s-.4-.2-.67-.2c-.31,0-.57.07-.78.22s-.36.35-.44.6-.13.51-.13.78c0,.34.05.64.15.9s.26.45.47.58.44.19.69.19c.3,0,.55-.09.76-.26s.35-.43.42-.77Z"/>
    <path class="cls-17" d="M386.74,379.28v-4.05h1.39c.31,0,.56.02.72.06.23.05.43.15.59.29.21.18.37.41.48.69s.16.6.16.96c0,.31-.04.58-.11.82s-.16.43-.28.59-.24.28-.37.37-.29.16-.48.2-.41.07-.65.07h-1.46ZM387.28,378.8h.86c.27,0,.48-.02.63-.07s.27-.12.36-.21c.13-.13.23-.3.3-.51s.11-.47.11-.78c0-.42-.07-.75-.21-.98s-.31-.38-.51-.46c-.14-.06-.37-.08-.69-.08h-.85v3.09Z"/>
    <path class="cls-17" d="M386.74,399.67v-4.05h1.39c.31,0,.56.02.72.06.23.05.43.15.59.29.21.18.37.41.48.69s.16.6.16.96c0,.31-.04.58-.11.82s-.16.43-.28.59-.24.28-.37.37-.29.16-.48.2-.41.07-.65.07h-1.46ZM387.28,399.19h.86c.27,0,.48-.02.63-.07s.27-.12.36-.21c.13-.13.23-.3.3-.51s.11-.47.11-.78c0-.42-.07-.75-.21-.98s-.31-.38-.51-.46c-.14-.06-.37-.08-.69-.08h-.85v3.09Z"/>
    <path class="cls-17" d="M386.74,420.06v-4.05h1.39c.31,0,.56.02.72.06.23.05.43.15.59.29.21.18.37.41.48.69s.16.6.16.96c0,.31-.04.58-.11.82s-.16.43-.28.59-.24.28-.37.37-.29.16-.48.2-.41.07-.65.07h-1.46ZM387.28,419.58h.86c.27,0,.48-.02.63-.07s.27-.12.36-.21c.13-.13.23-.3.3-.51s.11-.47.11-.78c0-.42-.07-.75-.21-.98s-.31-.38-.51-.46c-.14-.06-.37-.08-.69-.08h-.85v3.09Z"/>
    <path class="cls-17" d="M386.74,440.45v-4.05h1.39c.31,0,.56.02.72.06.23.05.43.15.59.29.21.18.37.41.48.69s.16.6.16.96c0,.31-.04.58-.11.82s-.16.43-.28.59-.24.28-.37.37-.29.16-.48.2-.41.07-.65.07h-1.46ZM387.28,439.97h.86c.27,0,.48-.02.63-.07s.27-.12.36-.21c.13-.13.23-.3.3-.51s.11-.47.11-.78c0-.42-.07-.75-.21-.98s-.31-.38-.51-.46c-.14-.06-.37-.08-.69-.08h-.85v3.09Z"/>
    <path class="cls-17" d="M386.74,460.84v-4.05h1.39c.31,0,.56.02.72.06.23.05.43.15.59.29.21.18.37.41.48.69s.16.6.16.96c0,.31-.04.58-.11.82s-.16.43-.28.59-.24.28-.37.37-.29.16-.48.2-.41.07-.65.07h-1.46ZM387.28,460.36h.86c.27,0,.48-.02.63-.07s.27-.12.36-.21c.13-.13.23-.3.3-.51s.11-.47.11-.78c0-.42-.07-.75-.21-.98s-.31-.38-.51-.46c-.14-.06-.37-.08-.69-.08h-.85v3.09Z"/>
    <path class="cls-17" d="M386.74,481.23v-4.05h1.39c.31,0,.56.02.72.06.23.05.43.15.59.29.21.18.37.41.48.69s.16.6.16.96c0,.31-.04.58-.11.82s-.16.43-.28.59-.24.28-.37.37-.29.16-.48.2-.41.07-.65.07h-1.46ZM387.28,480.75h.86c.27,0,.48-.02.63-.07s.27-.12.36-.21c.13-.13.23-.3.3-.51s.11-.47.11-.78c0-.42-.07-.75-.21-.98s-.31-.38-.51-.46c-.14-.06-.37-.08-.69-.08h-.85v3.09Z"/>
    <path class="cls-17" d="M386.74,501.62v-4.05h1.39c.31,0,.56.02.72.06.23.05.43.15.59.29.21.18.37.41.48.69s.16.6.16.96c0,.31-.04.58-.11.82s-.16.43-.28.59-.24.28-.37.37-.29.16-.48.2-.41.07-.65.07h-1.46ZM387.28,501.14h.86c.27,0,.48-.02.63-.07s.27-.12.36-.21c.13-.13.23-.3.3-.51s.11-.47.11-.78c0-.42-.07-.75-.21-.98s-.31-.38-.51-.46c-.14-.06-.37-.08-.69-.08h-.85v3.09Z"/>
    <path class="cls-17" d="M245.33,241.06c0-.51.05-.92.16-1.23s.26-.55.47-.72.46-.25.78-.25c.23,0,.43.05.61.14s.32.23.43.4.2.39.27.64.1.59.1,1.02c0,.5-.05.91-.16,1.22s-.26.55-.46.72-.47.25-.78.25c-.41,0-.74-.15-.98-.45-.28-.36-.42-.94-.42-1.75ZM245.88,241.06c0,.71.08,1.17.25,1.41s.37.35.61.35.45-.12.61-.35.25-.7.25-1.41-.08-1.18-.25-1.41-.37-.35-.62-.35-.44.1-.58.31c-.18.26-.27.75-.27,1.45Z"/>
    <path class="cls-17" d="M264.37,243.22h-.53v-3.36c-.13.12-.29.24-.5.36s-.39.21-.56.27v-.51c.29-.14.55-.31.77-.5s.38-.39.47-.57h.34v4.31Z"/>
    <path class="cls-17" d="M281.85,242.71v.51h-2.84c0-.13.02-.25.06-.37.07-.19.19-.38.35-.57s.39-.4.69-.65c.47-.38.78-.69.95-.91s.25-.44.25-.63c0-.21-.07-.39-.22-.53s-.34-.22-.58-.22c-.25,0-.46.08-.61.23s-.23.36-.23.63l-.54-.06c.04-.4.18-.71.42-.92s.57-.32.98-.32.74.11.98.34.36.51.36.85c0,.17-.04.34-.11.51s-.19.34-.35.52-.43.44-.81.76c-.32.27-.52.45-.61.54s-.16.19-.22.29h2.11Z"/>
    <path class="cls-17" d="M295.87,242.05l.53-.07c.06.3.16.51.31.65s.32.2.53.2c.25,0,.46-.09.63-.26s.26-.38.26-.64-.08-.44-.24-.6-.36-.24-.6-.24c-.1,0-.22.02-.37.06l.06-.46s.06,0,.08,0c.22,0,.43-.06.61-.18s.27-.3.27-.54c0-.19-.07-.35-.2-.48s-.3-.19-.51-.19-.38.06-.51.19-.22.32-.26.58l-.53-.09c.06-.35.21-.63.44-.82s.51-.29.85-.29c.23,0,.45.05.65.15s.35.24.45.41.16.36.16.55-.05.35-.15.51-.25.27-.44.36c.25.06.45.18.59.36s.21.42.21.69c0,.38-.14.69-.41.95s-.62.39-1.04.39c-.38,0-.69-.11-.94-.34s-.39-.52-.43-.87Z"/>
    <path class="cls-17" d="M314.5,243.21v-1.03h-1.86v-.48l1.96-2.78h.43v2.78h.58v.48h-.58v1.03h-.53ZM314.5,241.7v-1.94l-1.34,1.94h1.34Z"/>
    <path class="cls-17" d="M329.55,242.02l.55-.05c.04.27.14.47.29.61s.33.2.54.2c.25,0,.47-.1.64-.29s.26-.45.26-.76-.08-.54-.25-.71-.39-.26-.66-.26c-.17,0-.32.04-.46.12s-.24.18-.32.3l-.5-.06.42-2.21h2.14v.5h-1.71l-.23,1.15c.26-.18.53-.27.81-.27.38,0,.69.13.95.39s.39.59.39,1-.11.72-.34,1.01c-.28.35-.65.52-1.13.52-.39,0-.71-.11-.96-.33s-.39-.51-.42-.87Z"/>
    <path class="cls-17" d="M349.16,239.94l-.52.04c-.05-.21-.11-.36-.2-.45-.14-.15-.32-.23-.53-.23-.17,0-.32.05-.44.14-.17.12-.3.3-.39.53s-.15.56-.15.99c.13-.19.28-.34.47-.43s.38-.14.58-.14c.35,0,.65.13.9.39s.37.59.37,1c0,.27-.06.52-.17.75s-.28.41-.48.53-.43.18-.69.18c-.44,0-.8-.16-1.08-.48s-.42-.86-.42-1.6c0-.83.15-1.43.46-1.81.27-.33.63-.49,1.08-.49.34,0,.62.09.83.28s.34.45.39.79ZM347.01,241.79c0,.18.04.36.12.52s.18.29.32.38.28.13.44.13c.22,0,.41-.09.57-.27s.24-.42.24-.73-.08-.53-.24-.7-.36-.26-.6-.26-.44.09-.61.26-.25.4-.25.67Z"/>
    <path class="cls-17" d="M363.27,239.45v-.51h2.78v.41c-.27.29-.54.68-.81,1.16s-.48.98-.62,1.49c-.11.36-.17.75-.2,1.18h-.54c0-.34.07-.75.2-1.22s.31-.94.55-1.38.49-.82.76-1.12h-2.1Z"/>
    <path class="cls-17" d="M380.91,240.85c-.22-.08-.38-.19-.49-.34s-.16-.33-.16-.53c0-.31.11-.58.34-.79s.52-.32.9-.32.68.11.91.33.34.48.34.8c0,.2-.05.37-.16.52s-.26.26-.48.34c.26.09.46.22.6.42s.21.42.21.69c0,.37-.13.68-.39.93s-.6.38-1.03.38-.77-.13-1.03-.38-.39-.56-.39-.94c0-.28.07-.51.21-.7s.34-.32.6-.39ZM380.64,241.94c0,.15.04.3.11.44s.18.25.32.33.29.12.45.12c.25,0,.46-.08.62-.24s.25-.37.25-.62-.08-.46-.25-.63-.38-.25-.63-.25-.45.08-.62.25-.25.37-.25.62ZM380.81,239.96c0,.2.07.37.2.5s.3.19.51.19.37-.06.5-.19.19-.28.19-.47-.07-.36-.2-.49-.3-.2-.5-.2-.37.06-.5.19-.2.28-.2.46Z"/>
    <path class="cls-17" d="M397.02,242.19l.51-.05c.04.24.12.41.25.52s.28.16.47.16c.16,0,.3-.04.43-.11s.22-.17.3-.3.14-.29.2-.5.08-.43.08-.64c0-.02,0-.06,0-.11-.11.17-.25.3-.43.41s-.38.16-.59.16c-.36,0-.66-.13-.9-.39s-.37-.6-.37-1.02.13-.79.39-1.05.58-.4.96-.4c.28,0,.54.08.77.23s.41.36.53.64.18.68.18,1.21-.06.99-.18,1.31-.3.57-.53.74-.51.25-.83.25c-.34,0-.61-.09-.82-.28s-.34-.45-.38-.79ZM399.18,240.29c0-.3-.08-.54-.24-.72s-.36-.27-.58-.27-.44.1-.61.29-.26.44-.26.74c0,.27.08.5.25.67s.37.26.61.26.45-.09.6-.26.24-.41.24-.71Z"/>
    <path class="cls-17" d="M245.33,259.18c0-.51.05-.92.16-1.23s.26-.55.47-.72.46-.25.78-.25c.23,0,.43.05.61.14s.32.23.43.4.2.39.27.64.1.59.1,1.02c0,.5-.05.91-.16,1.22s-.26.55-.46.72-.47.25-.78.25c-.41,0-.74-.15-.98-.45-.28-.36-.42-.94-.42-1.75ZM245.88,259.18c0,.71.08,1.17.25,1.41s.37.35.61.35.45-.12.61-.35.25-.7.25-1.41-.08-1.18-.25-1.41-.37-.35-.62-.35-.44.1-.58.31c-.18.26-.27.75-.27,1.45Z"/>
    <path class="cls-17" d="M264.37,261.34h-.53v-3.36c-.13.12-.29.24-.5.36s-.39.21-.56.27v-.51c.29-.14.55-.31.77-.5s.38-.39.47-.57h.34v4.31Z"/>
    <path class="cls-17" d="M281.85,260.83v.51h-2.84c0-.13.02-.25.06-.37.07-.19.19-.38.35-.57s.39-.4.69-.65c.47-.38.78-.69.95-.91s.25-.44.25-.63c0-.21-.07-.39-.22-.53s-.34-.22-.58-.22c-.25,0-.46.08-.61.23s-.23.36-.23.63l-.54-.06c.04-.4.18-.71.42-.92s.57-.32.98-.32.74.11.98.34.36.51.36.85c0,.17-.04.34-.11.51s-.19.34-.35.52-.43.44-.81.76c-.32.27-.52.45-.61.54s-.16.19-.22.29h2.11Z"/>
    <path class="cls-17" d="M295.87,260.17l.53-.07c.06.3.16.51.31.65s.32.2.53.2c.25,0,.46-.09.63-.26s.26-.38.26-.64-.08-.44-.24-.6-.36-.24-.6-.24c-.1,0-.22.02-.37.06l.06-.46s.06,0,.08,0c.22,0,.43-.06.61-.18s.27-.3.27-.54c0-.19-.07-.35-.2-.48s-.3-.19-.51-.19-.38.06-.51.19-.22.32-.26.58l-.53-.09c.06-.35.21-.63.44-.82s.51-.29.85-.29c.23,0,.45.05.65.15s.35.24.45.41.16.36.16.55-.05.35-.15.51-.25.27-.44.36c.25.06.45.18.59.36s.21.42.21.69c0,.38-.14.69-.41.95s-.62.39-1.04.39c-.38,0-.69-.11-.94-.34s-.39-.52-.43-.87Z"/>
    <path class="cls-17" d="M314.5,261.33v-1.03h-1.86v-.48l1.96-2.78h.43v2.78h.58v.48h-.58v1.03h-.53ZM314.5,259.82v-1.94l-1.34,1.94h1.34Z"/>
    <path class="cls-17" d="M329.55,260.14l.55-.05c.04.27.14.47.29.61s.33.2.54.2c.25,0,.47-.1.64-.29s.26-.45.26-.76-.08-.54-.25-.71-.39-.26-.66-.26c-.17,0-.32.04-.46.12s-.24.18-.32.3l-.5-.06.42-2.21h2.14v.5h-1.71l-.23,1.15c.26-.18.53-.27.81-.27.38,0,.69.13.95.39s.39.59.39,1-.11.72-.34,1.01c-.28.35-.65.52-1.13.52-.39,0-.71-.11-.96-.33s-.39-.51-.42-.87Z"/>
    <path class="cls-17" d="M349.16,258.06l-.52.04c-.05-.21-.11-.36-.2-.45-.14-.15-.32-.23-.53-.23-.17,0-.32.05-.44.14-.17.12-.3.3-.39.53s-.15.56-.15.99c.13-.19.28-.34.47-.43s.38-.14.58-.14c.35,0,.65.13.9.39s.37.59.37,1c0,.27-.06.52-.17.75s-.28.41-.48.53-.43.18-.69.18c-.44,0-.8-.16-1.08-.48s-.42-.86-.42-1.6c0-.83.15-1.43.46-1.81.27-.33.63-.49,1.08-.49.34,0,.62.09.83.28s.34.45.39.79ZM347.01,259.91c0,.18.04.36.12.52s.18.29.32.38.28.13.44.13c.22,0,.41-.09.57-.27s.24-.42.24-.73-.08-.53-.24-.7-.36-.26-.6-.26-.44.09-.61.26-.25.4-.25.67Z"/>
    <path class="cls-17" d="M363.27,257.57v-.51h2.78v.41c-.27.29-.54.68-.81,1.16s-.48.98-.62,1.49c-.11.36-.17.75-.2,1.18h-.54c0-.34.07-.75.2-1.22s.31-.94.55-1.38.49-.82.76-1.12h-2.1Z"/>
    <path class="cls-17" d="M380.91,258.97c-.22-.08-.38-.19-.49-.34s-.16-.33-.16-.53c0-.31.11-.58.34-.79s.52-.32.9-.32.68.11.91.33.34.48.34.8c0,.2-.05.37-.16.52s-.26.26-.48.34c.26.09.46.22.6.42s.21.42.21.69c0,.37-.13.68-.39.93s-.6.38-1.03.38-.77-.13-1.03-.38-.39-.56-.39-.94c0-.28.07-.51.21-.7s.34-.32.6-.39ZM380.64,260.06c0,.15.04.3.11.44s.18.25.32.33.29.12.45.12c.25,0,.46-.08.62-.24s.25-.37.25-.62-.08-.46-.25-.63-.38-.25-.63-.25-.45.08-.62.25-.25.37-.25.62ZM380.81,258.08c0,.2.07.37.2.5s.3.19.51.19.37-.06.5-.19.19-.28.19-.47-.07-.36-.2-.49-.3-.2-.5-.2-.37.06-.5.19-.2.28-.2.46Z"/>
    <path class="cls-17" d="M397.02,260.31l.51-.05c.04.24.12.41.25.52s.28.16.47.16c.16,0,.3-.04.43-.11s.22-.17.3-.3.14-.29.2-.5.08-.43.08-.64c0-.02,0-.06,0-.11-.11.17-.25.3-.43.41s-.38.16-.59.16c-.36,0-.66-.13-.9-.39s-.37-.6-.37-1.02.13-.79.39-1.05.58-.4.96-.4c.28,0,.54.08.77.23s.41.36.53.64.18.68.18,1.21-.06.99-.18,1.31-.3.57-.53.74-.51.25-.83.25c-.34,0-.61-.09-.82-.28s-.34-.45-.38-.79ZM399.18,258.41c0-.3-.08-.54-.24-.72s-.36-.27-.58-.27-.44.1-.61.29-.26.44-.26.74c0,.27.08.5.25.67s.37.26.61.26.45-.09.6-.26.24-.41.24-.71Z"/>
    <path class="cls-17" d="M245.33,277.3c0-.51.05-.92.16-1.23s.26-.55.47-.72.46-.25.78-.25c.23,0,.43.05.61.14s.32.23.43.4.2.39.27.64.1.59.1,1.02c0,.5-.05.91-.16,1.22s-.26.55-.46.72-.47.25-.78.25c-.41,0-.74-.15-.98-.45-.28-.36-.42-.94-.42-1.75ZM245.88,277.3c0,.71.08,1.17.25,1.41s.37.35.61.35.45-.12.61-.35.25-.7.25-1.41-.08-1.18-.25-1.41-.37-.35-.62-.35-.44.1-.58.31c-.18.26-.27.75-.27,1.45Z"/>
    <path class="cls-17" d="M264.37,279.46h-.53v-3.36c-.13.12-.29.24-.5.36s-.39.21-.56.27v-.51c.29-.14.55-.31.77-.5s.38-.39.47-.57h.34v4.31Z"/>
    <path class="cls-17" d="M281.85,278.95v.51h-2.84c0-.13.02-.25.06-.37.07-.19.19-.38.35-.57s.39-.4.69-.65c.47-.38.78-.69.95-.91s.25-.44.25-.63c0-.21-.07-.39-.22-.53s-.34-.22-.58-.22c-.25,0-.46.08-.61.23s-.23.36-.23.63l-.54-.06c.04-.4.18-.71.42-.92s.57-.32.98-.32.74.11.98.34.36.51.36.85c0,.17-.04.34-.11.51s-.19.34-.35.52-.43.44-.81.76c-.32.27-.52.45-.61.54s-.16.19-.22.29h2.11Z"/>
    <path class="cls-17" d="M295.87,278.29l.53-.07c.06.3.16.51.31.65s.32.2.53.2c.25,0,.46-.09.63-.26s.26-.38.26-.64-.08-.44-.24-.6-.36-.24-.6-.24c-.1,0-.22.02-.37.06l.06-.46s.06,0,.08,0c.22,0,.43-.06.61-.18s.27-.3.27-.54c0-.19-.07-.35-.2-.48s-.3-.19-.51-.19-.38.06-.51.19-.22.32-.26.58l-.53-.09c.06-.35.21-.63.44-.82s.51-.29.85-.29c.23,0,.45.05.65.15s.35.24.45.41.16.36.16.55-.05.35-.15.51-.25.27-.44.36c.25.06.45.18.59.36s.21.42.21.69c0,.38-.14.69-.41.95s-.62.39-1.04.39c-.38,0-.69-.11-.94-.34s-.39-.52-.43-.87Z"/>
    <path class="cls-17" d="M314.5,279.45v-1.03h-1.86v-.48l1.96-2.78h.43v2.78h.58v.48h-.58v1.03h-.53ZM314.5,277.94v-1.94l-1.34,1.94h1.34Z"/>
    <path class="cls-17" d="M329.55,278.26l.55-.05c.04.27.14.47.29.61s.33.2.54.2c.25,0,.47-.1.64-.29s.26-.45.26-.76-.08-.54-.25-.71-.39-.26-.66-.26c-.17,0-.32.04-.46.12s-.24.18-.32.3l-.5-.06.42-2.21h2.14v.5h-1.71l-.23,1.15c.26-.18.53-.27.81-.27.38,0,.69.13.95.39s.39.59.39,1-.11.72-.34,1.01c-.28.35-.65.52-1.13.52-.39,0-.71-.11-.96-.33s-.39-.51-.42-.87Z"/>
    <path class="cls-17" d="M349.16,276.18l-.52.04c-.05-.21-.11-.36-.2-.45-.14-.15-.32-.23-.53-.23-.17,0-.32.05-.44.14-.17.12-.3.3-.39.53s-.15.56-.15.99c.13-.19.28-.34.47-.43s.38-.14.58-.14c.35,0,.65.13.9.39s.37.59.37,1c0,.27-.06.52-.17.75s-.28.41-.48.53-.43.18-.69.18c-.44,0-.8-.16-1.08-.48s-.42-.86-.42-1.6c0-.83.15-1.43.46-1.81.27-.33.63-.49,1.08-.49.34,0,.62.09.83.28s.34.45.39.79ZM347.01,278.03c0,.18.04.36.12.52s.18.29.32.38.28.13.44.13c.22,0,.41-.09.57-.27s.24-.42.24-.73-.08-.53-.24-.7-.36-.26-.6-.26-.44.09-.61.26-.25.4-.25.67Z"/>
    <path class="cls-17" d="M363.27,275.69v-.51h2.78v.41c-.27.29-.54.68-.81,1.16s-.48.98-.62,1.49c-.11.36-.17.75-.2,1.18h-.54c0-.34.07-.75.2-1.22s.31-.94.55-1.38.49-.82.76-1.12h-2.1Z"/>
    <path class="cls-17" d="M380.91,277.09c-.22-.08-.38-.19-.49-.34s-.16-.33-.16-.53c0-.31.11-.58.34-.79s.52-.32.9-.32.68.11.91.33.34.48.34.8c0,.2-.05.37-.16.52s-.26.26-.48.34c.26.09.46.22.6.42s.21.42.21.69c0,.37-.13.68-.39.93s-.6.38-1.03.38-.77-.13-1.03-.38-.39-.56-.39-.94c0-.28.07-.51.21-.7s.34-.32.6-.39ZM380.64,278.18c0,.15.04.3.11.44s.18.25.32.33.29.12.45.12c.25,0,.46-.08.62-.24s.25-.37.25-.62-.08-.46-.25-.63-.38-.25-.63-.25-.45.08-.62.25-.25.37-.25.62ZM380.81,276.2c0,.2.07.37.2.5s.3.19.51.19.37-.06.5-.19.19-.28.19-.47-.07-.36-.2-.49-.3-.2-.5-.2-.37.06-.5.19-.2.28-.2.46Z"/>
    <path class="cls-17" d="M397.02,278.43l.51-.05c.04.24.12.41.25.52s.28.16.47.16c.16,0,.3-.04.43-.11s.22-.17.3-.3.14-.29.2-.5.08-.43.08-.64c0-.02,0-.06,0-.11-.11.17-.25.3-.43.41s-.38.16-.59.16c-.36,0-.66-.13-.9-.39s-.37-.6-.37-1.02.13-.79.39-1.05.58-.4.96-.4c.28,0,.54.08.77.23s.41.36.53.64.18.68.18,1.21-.06.99-.18,1.31-.3.57-.53.74-.51.25-.83.25c-.34,0-.61-.09-.82-.28s-.34-.45-.38-.79ZM399.18,276.53c0-.3-.08-.54-.24-.72s-.36-.27-.58-.27-.44.1-.61.29-.26.44-.26.74c0,.27.08.5.25.67s.37.26.61.26.45-.09.6-.26.24-.41.24-.71Z"/>
    <path class="cls-17" d="M245.33,295.42c0-.51.05-.92.16-1.23s.26-.55.47-.72.46-.25.78-.25c.23,0,.43.05.61.14s.32.23.43.4.2.39.27.64.1.59.1,1.02c0,.5-.05.91-.16,1.22s-.26.55-.46.72-.47.25-.78.25c-.41,0-.74-.15-.98-.45-.28-.36-.42-.94-.42-1.75ZM245.88,295.42c0,.71.08,1.17.25,1.41s.37.35.61.35.45-.12.61-.35.25-.7.25-1.41-.08-1.18-.25-1.41-.37-.35-.62-.35-.44.1-.58.31c-.18.26-.27.75-.27,1.45Z"/>
    <path class="cls-17" d="M264.37,297.58h-.53v-3.36c-.13.12-.29.24-.5.36s-.39.21-.56.27v-.51c.29-.14.55-.31.77-.5s.38-.39.47-.57h.34v4.31Z"/>
    <path class="cls-17" d="M281.85,297.07v.51h-2.84c0-.13.02-.25.06-.37.07-.19.19-.38.35-.57s.39-.4.69-.65c.47-.38.78-.69.95-.91s.25-.44.25-.63c0-.21-.07-.39-.22-.53s-.34-.22-.58-.22c-.25,0-.46.08-.61.23s-.23.36-.23.63l-.54-.06c.04-.4.18-.71.42-.92s.57-.32.98-.32.74.11.98.34.36.51.36.85c0,.17-.04.34-.11.51s-.19.34-.35.52-.43.44-.81.76c-.32.27-.52.45-.61.54s-.16.19-.22.29h2.11Z"/>
    <path class="cls-17" d="M295.87,296.41l.53-.07c.06.3.16.51.31.65s.32.2.53.2c.25,0,.46-.09.63-.26s.26-.38.26-.64-.08-.44-.24-.6-.36-.24-.6-.24c-.1,0-.22.02-.37.06l.06-.46s.06,0,.08,0c.22,0,.43-.06.61-.18s.27-.3.27-.54c0-.19-.07-.35-.2-.48s-.3-.19-.51-.19-.38.06-.51.19-.22.32-.26.58l-.53-.09c.06-.35.21-.63.44-.82s.51-.29.85-.29c.23,0,.45.05.65.15s.35.24.45.41.16.36.16.55-.05.35-.15.51-.25.27-.44.36c.25.06.45.18.59.36s.21.42.21.69c0,.38-.14.69-.41.95s-.62.39-1.04.39c-.38,0-.69-.11-.94-.34s-.39-.52-.43-.87Z"/>
    <path class="cls-17" d="M314.5,297.57v-1.03h-1.86v-.48l1.96-2.78h.43v2.78h.58v.48h-.58v1.03h-.53ZM314.5,296.06v-1.94l-1.34,1.94h1.34Z"/>
    <path class="cls-17" d="M329.55,296.38l.55-.05c.04.27.14.47.29.61s.33.2.54.2c.25,0,.47-.1.64-.29s.26-.45.26-.76-.08-.54-.25-.71-.39-.26-.66-.26c-.17,0-.32.04-.46.12s-.24.18-.32.3l-.5-.06.42-2.21h2.14v.5h-1.71l-.23,1.15c.26-.18.53-.27.81-.27.38,0,.69.13.95.39s.39.59.39,1-.11.72-.34,1.01c-.28.35-.65.52-1.13.52-.39,0-.71-.11-.96-.33s-.39-.51-.42-.87Z"/>
    <path class="cls-17" d="M349.16,294.3l-.52.04c-.05-.21-.11-.36-.2-.45-.14-.15-.32-.23-.53-.23-.17,0-.32.05-.44.14-.17.12-.3.3-.39.53s-.15.56-.15.99c.13-.19.28-.34.47-.43s.38-.14.58-.14c.35,0,.65.13.9.39s.37.59.37,1c0,.27-.06.52-.17.75s-.28.41-.48.53-.43.18-.69.18c-.44,0-.8-.16-1.08-.48s-.42-.86-.42-1.6c0-.83.15-1.43.46-1.81.27-.33.63-.49,1.08-.49.34,0,.62.09.83.28s.34.45.39.79ZM347.01,296.15c0,.18.04.36.12.52s.18.29.32.38.28.13.44.13c.22,0,.41-.09.57-.27s.24-.42.24-.73-.08-.53-.24-.7-.36-.26-.6-.26-.44.09-.61.26-.25.4-.25.67Z"/>
    <path class="cls-17" d="M363.27,293.81v-.51h2.78v.41c-.27.29-.54.68-.81,1.16s-.48.98-.62,1.49c-.11.36-.17.75-.2,1.18h-.54c0-.34.07-.75.2-1.22s.31-.94.55-1.38.49-.82.76-1.12h-2.1Z"/>
    <path class="cls-17" d="M380.91,295.21c-.22-.08-.38-.19-.49-.34s-.16-.33-.16-.53c0-.31.11-.58.34-.79s.52-.32.9-.32.68.11.91.33.34.48.34.8c0,.2-.05.37-.16.52s-.26.26-.48.34c.26.09.46.22.6.42s.21.42.21.69c0,.37-.13.68-.39.93s-.6.38-1.03.38-.77-.13-1.03-.38-.39-.56-.39-.94c0-.28.07-.51.21-.7s.34-.32.6-.39ZM380.64,296.3c0,.15.04.3.11.44s.18.25.32.33.29.12.45.12c.25,0,.46-.08.62-.24s.25-.37.25-.62-.08-.46-.25-.63-.38-.25-.63-.25-.45.08-.62.25-.25.37-.25.62ZM380.81,294.32c0,.2.07.37.2.5s.3.19.51.19.37-.06.5-.19.19-.28.19-.47-.07-.36-.2-.49-.3-.2-.5-.2-.37.06-.5.19-.2.28-.2.46Z"/>
    <path class="cls-17" d="M397.02,296.55l.51-.05c.04.24.12.41.25.52s.28.16.47.16c.16,0,.3-.04.43-.11s.22-.17.3-.3.14-.29.2-.5.08-.43.08-.64c0-.02,0-.06,0-.11-.11.17-.25.3-.43.41s-.38.16-.59.16c-.36,0-.66-.13-.9-.39s-.37-.6-.37-1.02.13-.79.39-1.05.58-.4.96-.4c.28,0,.54.08.77.23s.41.36.53.64.18.68.18,1.21-.06.99-.18,1.31-.3.57-.53.74-.51.25-.83.25c-.34,0-.61-.09-.82-.28s-.34-.45-.38-.79ZM399.18,294.65c0-.3-.08-.54-.24-.72s-.36-.27-.58-.27-.44.1-.61.29-.26.44-.26.74c0,.27.08.5.25.67s.37.26.61.26.45-.09.6-.26.24-.41.24-.71Z"/>
    <path class="cls-17" d="M245.33,313.54c0-.51.05-.92.16-1.23s.26-.55.47-.72.46-.25.78-.25c.23,0,.43.05.61.14s.32.23.43.4.2.39.27.64.1.59.1,1.02c0,.5-.05.91-.16,1.22s-.26.55-.46.72-.47.25-.78.25c-.41,0-.74-.15-.98-.45-.28-.36-.42-.94-.42-1.75ZM245.88,313.54c0,.71.08,1.17.25,1.41s.37.35.61.35.45-.12.61-.35.25-.7.25-1.41-.08-1.18-.25-1.41-.37-.35-.62-.35-.44.1-.58.31c-.18.26-.27.75-.27,1.45Z"/>
    <path class="cls-17" d="M264.37,315.7h-.53v-3.36c-.13.12-.29.24-.5.36s-.39.21-.56.27v-.51c.29-.14.55-.31.77-.5s.38-.39.47-.57h.34v4.31Z"/>
    <path class="cls-17" d="M281.85,315.19v.51h-2.84c0-.13.02-.25.06-.37.07-.19.19-.38.35-.57s.39-.4.69-.65c.47-.38.78-.69.95-.91s.25-.44.25-.63c0-.21-.07-.39-.22-.53s-.34-.22-.58-.22c-.25,0-.46.08-.61.23s-.23.36-.23.63l-.54-.06c.04-.4.18-.71.42-.92s.57-.32.98-.32.74.11.98.34.36.51.36.85c0,.17-.04.34-.11.51s-.19.34-.35.52-.43.44-.81.76c-.32.27-.52.45-.61.54s-.16.19-.22.29h2.11Z"/>
    <path class="cls-17" d="M295.87,314.53l.53-.07c.06.3.16.51.31.65s.32.2.53.2c.25,0,.46-.09.63-.26s.26-.38.26-.64-.08-.44-.24-.6-.36-.24-.6-.24c-.1,0-.22.02-.37.06l.06-.46s.06,0,.08,0c.22,0,.43-.06.61-.18s.27-.3.27-.54c0-.19-.07-.35-.2-.48s-.3-.19-.51-.19-.38.06-.51.19-.22.32-.26.58l-.53-.09c.06-.35.21-.63.44-.82s.51-.29.85-.29c.23,0,.45.05.65.15s.35.24.45.41.16.36.16.55-.05.35-.15.51-.25.27-.44.36c.25.06.45.18.59.36s.21.42.21.69c0,.38-.14.69-.41.95s-.62.39-1.04.39c-.38,0-.69-.11-.94-.34s-.39-.52-.43-.87Z"/>
    <path class="cls-17" d="M314.5,315.69v-1.03h-1.86v-.48l1.96-2.78h.43v2.78h.58v.48h-.58v1.03h-.53ZM314.5,314.18v-1.94l-1.34,1.94h1.34Z"/>
    <path class="cls-17" d="M329.55,314.5l.55-.05c.04.27.14.47.29.61s.33.2.54.2c.25,0,.47-.1.64-.29s.26-.45.26-.76-.08-.54-.25-.71-.39-.26-.66-.26c-.17,0-.32.04-.46.12s-.24.18-.32.3l-.5-.06.42-2.21h2.14v.5h-1.71l-.23,1.15c.26-.18.53-.27.81-.27.38,0,.69.13.95.39s.39.59.39,1-.11.72-.34,1.01c-.28.35-.65.52-1.13.52-.39,0-.71-.11-.96-.33s-.39-.51-.42-.87Z"/>
    <path class="cls-17" d="M349.16,312.42l-.52.04c-.05-.21-.11-.36-.2-.45-.14-.15-.32-.23-.53-.23-.17,0-.32.05-.44.14-.17.12-.3.3-.39.53s-.15.56-.15.99c.13-.19.28-.34.47-.43s.38-.14.58-.14c.35,0,.65.13.9.39s.37.59.37,1c0,.27-.06.52-.17.75s-.28.41-.48.53-.43.18-.69.18c-.44,0-.8-.16-1.08-.48s-.42-.86-.42-1.6c0-.83.15-1.43.46-1.81.27-.33.63-.49,1.08-.49.34,0,.62.09.83.28s.34.45.39.79ZM347.01,314.27c0,.18.04.36.12.52s.18.29.32.38.28.13.44.13c.22,0,.41-.09.57-.27s.24-.42.24-.73-.08-.53-.24-.7-.36-.26-.6-.26-.44.09-.61.26-.25.4-.25.67Z"/>
    <path class="cls-17" d="M363.27,311.93v-.51h2.78v.41c-.27.29-.54.68-.81,1.16s-.48.98-.62,1.49c-.11.36-.17.75-.2,1.18h-.54c0-.34.07-.75.2-1.22s.31-.94.55-1.38.49-.82.76-1.12h-2.1Z"/>
    <path class="cls-17" d="M380.91,313.33c-.22-.08-.38-.19-.49-.34s-.16-.33-.16-.53c0-.31.11-.58.34-.79s.52-.32.9-.32.68.11.91.33.34.48.34.8c0,.2-.05.37-.16.52s-.26.26-.48.34c.26.09.46.22.6.42s.21.42.21.69c0,.37-.13.68-.39.93s-.6.38-1.03.38-.77-.13-1.03-.38-.39-.56-.39-.94c0-.28.07-.51.21-.7s.34-.32.6-.39ZM380.64,314.42c0,.15.04.3.11.44s.18.25.32.33.29.12.45.12c.25,0,.46-.08.62-.24s.25-.37.25-.62-.08-.46-.25-.63-.38-.25-.63-.25-.45.08-.62.25-.25.37-.25.62ZM380.81,312.44c0,.2.07.37.2.5s.3.19.51.19.37-.06.5-.19.19-.28.19-.47-.07-.36-.2-.49-.3-.2-.5-.2-.37.06-.5.19-.2.28-.2.46Z"/>
    <path class="cls-17" d="M397.02,314.67l.51-.05c.04.24.12.41.25.52s.28.16.47.16c.16,0,.3-.04.43-.11s.22-.17.3-.3.14-.29.2-.5.08-.43.08-.64c0-.02,0-.06,0-.11-.11.17-.25.3-.43.41s-.38.16-.59.16c-.36,0-.66-.13-.9-.39s-.37-.6-.37-1.02.13-.79.39-1.05.58-.4.96-.4c.28,0,.54.08.77.23s.41.36.53.64.18.68.18,1.21-.06.99-.18,1.31-.3.57-.53.74-.51.25-.83.25c-.34,0-.61-.09-.82-.28s-.34-.45-.38-.79ZM399.18,312.77c0-.3-.08-.54-.24-.72s-.36-.27-.58-.27-.44.1-.61.29-.26.44-.26.74c0,.27.08.5.25.67s.37.26.61.26.45-.09.6-.26.24-.41.24-.71Z"/>
    <path class="cls-17" d="M245.33,331.66c0-.51.05-.92.16-1.23s.26-.55.47-.72.46-.25.78-.25c.23,0,.43.05.61.14s.32.23.43.4.2.39.27.64.1.59.1,1.02c0,.5-.05.91-.16,1.22s-.26.55-.46.72-.47.25-.78.25c-.41,0-.74-.15-.98-.45-.28-.36-.42-.94-.42-1.75ZM245.88,331.66c0,.71.08,1.17.25,1.41s.37.35.61.35.45-.12.61-.35.25-.7.25-1.41-.08-1.18-.25-1.41-.37-.35-.62-.35-.44.1-.58.31c-.18.26-.27.75-.27,1.45Z"/>
    <path class="cls-17" d="M264.37,333.82h-.53v-3.36c-.13.12-.29.24-.5.36s-.39.21-.56.27v-.51c.29-.14.55-.31.77-.5s.38-.39.47-.57h.34v4.31Z"/>
    <path class="cls-17" d="M281.85,333.31v.51h-2.84c0-.13.02-.25.06-.37.07-.19.19-.38.35-.57s.39-.4.69-.65c.47-.38.78-.69.95-.91s.25-.44.25-.63c0-.21-.07-.39-.22-.53s-.34-.22-.58-.22c-.25,0-.46.08-.61.23s-.23.36-.23.63l-.54-.06c.04-.4.18-.71.42-.92s.57-.32.98-.32.74.11.98.34.36.51.36.85c0,.17-.04.34-.11.51s-.19.34-.35.52-.43.44-.81.76c-.32.27-.52.45-.61.54s-.16.19-.22.29h2.11Z"/>
    <path class="cls-17" d="M295.87,332.65l.53-.07c.06.3.16.51.31.65s.32.2.53.2c.25,0,.46-.09.63-.26s.26-.38.26-.64-.08-.44-.24-.6-.36-.24-.6-.24c-.1,0-.22.02-.37.06l.06-.46s.06,0,.08,0c.22,0,.43-.06.61-.18s.27-.3.27-.54c0-.19-.07-.35-.2-.48s-.3-.19-.51-.19-.38.06-.51.19-.22.32-.26.58l-.53-.09c.06-.35.21-.63.44-.82s.51-.29.85-.29c.23,0,.45.05.65.15s.35.24.45.41.16.36.16.55-.05.35-.15.51-.25.27-.44.36c.25.06.45.18.59.36s.21.42.21.69c0,.38-.14.69-.41.95s-.62.39-1.04.39c-.38,0-.69-.11-.94-.34s-.39-.52-.43-.87Z"/>
    <path class="cls-17" d="M314.5,333.81v-1.03h-1.86v-.48l1.96-2.78h.43v2.78h.58v.48h-.58v1.03h-.53ZM314.5,332.3v-1.94l-1.34,1.94h1.34Z"/>
    <path class="cls-17" d="M329.55,332.62l.55-.05c.04.27.14.47.29.61s.33.2.54.2c.25,0,.47-.1.64-.29s.26-.45.26-.76-.08-.54-.25-.71-.39-.26-.66-.26c-.17,0-.32.04-.46.12s-.24.18-.32.3l-.5-.06.42-2.21h2.14v.5h-1.71l-.23,1.15c.26-.18.53-.27.81-.27.38,0,.69.13.95.39s.39.59.39,1-.11.72-.34,1.01c-.28.35-.65.52-1.13.52-.39,0-.71-.11-.96-.33s-.39-.51-.42-.87Z"/>
    <path class="cls-17" d="M349.16,330.54l-.52.04c-.05-.21-.11-.36-.2-.45-.14-.15-.32-.23-.53-.23-.17,0-.32.05-.44.14-.17.12-.3.3-.39.53s-.15.56-.15.99c.13-.19.28-.34.47-.43s.38-.14.58-.14c.35,0,.65.13.9.39s.37.59.37,1c0,.27-.06.52-.17.75s-.28.41-.48.53-.43.18-.69.18c-.44,0-.8-.16-1.08-.48s-.42-.86-.42-1.6c0-.83.15-1.43.46-1.81.27-.33.63-.49,1.08-.49.34,0,.62.09.83.28s.34.45.39.79ZM347.01,332.39c0,.18.04.36.12.52s.18.29.32.38.28.13.44.13c.22,0,.41-.09.57-.27s.24-.42.24-.73-.08-.53-.24-.7-.36-.26-.6-.26-.44.09-.61.26-.25.4-.25.67Z"/>
    <path class="cls-17" d="M363.27,330.05v-.51h2.78v.41c-.27.29-.54.68-.81,1.16s-.48.98-.62,1.49c-.11.36-.17.75-.2,1.18h-.54c0-.34.07-.75.2-1.22s.31-.94.55-1.38.49-.82.76-1.12h-2.1Z"/>
    <path class="cls-17" d="M380.91,331.45c-.22-.08-.38-.19-.49-.34s-.16-.33-.16-.53c0-.31.11-.58.34-.79s.52-.32.9-.32.68.11.91.33.34.48.34.8c0,.2-.05.37-.16.52s-.26.26-.48.34c.26.09.46.22.6.42s.21.42.21.69c0,.37-.13.68-.39.93s-.6.38-1.03.38-.77-.13-1.03-.38-.39-.56-.39-.94c0-.28.07-.51.21-.7s.34-.32.6-.39ZM380.64,332.54c0,.15.04.3.11.44s.18.25.32.33.29.12.45.12c.25,0,.46-.08.62-.24s.25-.37.25-.62-.08-.46-.25-.63-.38-.25-.63-.25-.45.08-.62.25-.25.37-.25.62ZM380.81,330.56c0,.2.07.37.2.5s.3.19.51.19.37-.06.5-.19.19-.28.19-.47-.07-.36-.2-.49-.3-.2-.5-.2-.37.06-.5.19-.2.28-.2.46Z"/>
    <path class="cls-17" d="M397.02,332.79l.51-.05c.04.24.12.41.25.52s.28.16.47.16c.16,0,.3-.04.43-.11s.22-.17.3-.3.14-.29.2-.5.08-.43.08-.64c0-.02,0-.06,0-.11-.11.17-.25.3-.43.41s-.38.16-.59.16c-.36,0-.66-.13-.9-.39s-.37-.6-.37-1.02.13-.79.39-1.05.58-.4.96-.4c.28,0,.54.08.77.23s.41.36.53.64.18.68.18,1.21-.06.99-.18,1.31-.3.57-.53.74-.51.25-.83.25c-.34,0-.61-.09-.82-.28s-.34-.45-.38-.79ZM399.18,330.89c0-.3-.08-.54-.24-.72s-.36-.27-.58-.27-.44.1-.61.29-.26.44-.26.74c0,.27.08.5.25.67s.37.26.61.26.45-.09.6-.26.24-.41.24-.71Z"/>
  </g>
  <g id="ID">
    <line class="cls-6" x1="142.59" y1="356.55" x2="405.91" y2="356.55"/>
    <rect class="cls-7" x="220.07" y="233.8" width="14.53" height="14.53"/>
    <rect class="cls-7" x="220.07" y="251.92" width="14.53" height="14.53"/>
    <rect class="cls-7" x="220.07" y="270.04" width="14.53" height="14.53"/>
    <rect class="cls-7" x="220.07" y="288.16" width="14.53" height="14.53"/>
    <rect class="cls-7" x="220.07" y="306.28" width="14.53" height="14.53"/>
    <rect class="cls-7" x="220.07" y="324.4" width="14.53" height="14.53"/>
    <text class="cls-12" transform="translate(220.07 225.48)"><tspan x="0" y="0">STUDENT ID</tspan></text>
  </g>
  <g id="header">
    <g>
      <path d="M145.46,254.96v-5.73h.78l3.01,4.5v-4.5h.73v5.73h-.78l-3.01-4.5v4.5h-.73Z"/>
      <path d="M150.61,254.96l2.2-5.73h.82l2.34,5.73h-.86l-.67-1.73h-2.39l-.63,1.73h-.8ZM152.27,252.61h1.94l-.6-1.59c-.18-.48-.32-.88-.41-1.19-.07.37-.18.73-.31,1.09l-.63,1.68Z"/>
      <path d="M156.55,254.96v-5.73h1.14l1.36,4.05c.12.38.22.66.27.85.06-.21.17-.51.3-.92l1.37-3.98h1.02v5.73h-.73v-4.79l-1.66,4.79h-.68l-1.66-4.88v4.88h-.73Z"/>
      <path d="M163.26,254.96v-5.73h4.14v.68h-3.38v1.75h3.17v.67h-3.17v1.95h3.52v.68h-4.27Z"/>
      <path d="M168.68,251.61v-.8h.8v.8h-.8ZM168.68,254.96v-.8h.8v.8h-.8Z"/>
    </g>
    <g>
      <path d="M149.76,287.7l.76.19c-.16.62-.44,1.1-.86,1.42s-.92.49-1.51.49-1.12-.13-1.51-.38-.68-.62-.88-1.09-.3-.99-.3-1.54c0-.6.11-1.12.34-1.56s.55-.78.97-1.01.88-.35,1.39-.35c.57,0,1.05.15,1.45.44s.66.7.82,1.23l-.75.18c-.13-.42-.33-.72-.58-.91s-.57-.29-.95-.29c-.44,0-.81.11-1.1.32s-.5.49-.62.85-.18.72-.18,1.1c0,.49.07.91.21,1.28s.36.63.66.81.62.27.97.27c.42,0,.78-.12,1.08-.37s.49-.61.6-1.09Z"/>
      <path d="M151.35,289.71v-5.73h.7v5.73h-.7Z"/>
      <path d="M155.85,289.2c-.26.22-.51.38-.75.47s-.5.14-.78.14c-.46,0-.81-.11-1.05-.33s-.37-.51-.37-.85c0-.2.05-.39.14-.56s.21-.3.36-.4.32-.18.51-.23c.14-.04.35-.07.62-.11.57-.07.99-.15,1.25-.24,0-.1,0-.16,0-.18,0-.29-.07-.49-.2-.61-.18-.16-.45-.24-.8-.24-.33,0-.57.06-.73.17s-.27.32-.35.62l-.69-.09c.06-.29.17-.53.31-.71s.35-.32.62-.42.58-.15.94-.15.64.04.86.12.38.19.49.31.18.29.22.48c.02.12.04.34.04.65v.94c0,.65.02,1.07.04,1.24s.09.34.18.5h-.73c-.07-.15-.12-.32-.14-.51ZM155.79,287.63c-.26.1-.64.19-1.15.27-.29.04-.49.09-.61.14s-.21.13-.28.23-.1.21-.1.33c0,.19.07.34.21.47s.35.19.62.19.51-.06.72-.18.37-.28.46-.49c.08-.16.11-.39.11-.7v-.26Z"/>
      <path d="M157.31,288.47l.7-.11c.04.28.15.49.33.64s.43.22.75.22.56-.07.72-.2.23-.29.23-.46c0-.16-.07-.28-.21-.38-.1-.06-.34-.14-.72-.24-.52-.13-.87-.24-1.07-.34s-.35-.23-.45-.39-.15-.35-.15-.56c0-.18.04-.36.13-.51s.2-.29.35-.39c.11-.08.26-.15.45-.21s.39-.08.61-.08c.33,0,.61.05.86.14s.43.22.54.38.2.37.24.64l-.69.09c-.03-.21-.12-.38-.27-.5s-.36-.18-.63-.18c-.32,0-.55.05-.69.16s-.21.23-.21.38c0,.09.03.17.09.25.06.08.15.14.27.19.07.03.28.09.62.18.5.13.84.24,1.04.33s.35.21.46.37.17.36.17.6-.07.46-.21.66-.33.37-.59.48-.55.17-.88.17c-.54,0-.95-.11-1.23-.34s-.46-.56-.54-1Z"/>
      <path d="M161.31,288.47l.7-.11c.04.28.15.49.33.64s.43.22.75.22.56-.07.72-.2.23-.29.23-.46c0-.16-.07-.28-.21-.38-.1-.06-.34-.14-.72-.24-.52-.13-.87-.24-1.07-.34s-.35-.23-.45-.39-.15-.35-.15-.56c0-.18.04-.36.13-.51s.2-.29.35-.39c.11-.08.26-.15.45-.21s.39-.08.61-.08c.33,0,.61.05.86.14s.43.22.54.38.2.37.24.64l-.69.09c-.03-.21-.12-.38-.27-.5s-.36-.18-.63-.18c-.32,0-.55.05-.69.16s-.21.23-.21.38c0,.09.03.17.09.25.06.08.15.14.27.19.07.03.28.09.62.18.5.13.84.24,1.04.33s.35.21.46.37.17.36.17.6-.07.46-.21.66-.33.37-.59.48-.55.17-.88.17c-.54,0-.95-.11-1.23-.34s-.46-.56-.54-1Z"/>
      <path d="M165.79,286.36v-.8h.8v.8h-.8ZM165.79,289.71v-.8h.8v.8h-.8Z"/>
    </g>
    <g>
      <path d="M145.46,324.31v-5.73h1.97c.45,0,.79.03,1.02.08.33.08.61.21.84.41.3.25.53.58.68.98s.22.85.22,1.36c0,.43-.05.82-.15,1.16s-.23.61-.39.83-.33.39-.52.52-.42.22-.68.29-.57.1-.92.1h-2.07ZM146.22,323.63h1.22c.38,0,.67-.04.89-.11s.39-.17.51-.3c.18-.18.32-.42.42-.72s.15-.67.15-1.1c0-.6-.1-1.06-.29-1.38s-.44-.54-.72-.65c-.2-.08-.53-.12-.98-.12h-1.2v4.38Z"/>
      <path d="M153.85,323.79c-.26.22-.51.38-.75.47s-.5.14-.78.14c-.46,0-.81-.11-1.05-.33s-.37-.51-.37-.85c0-.2.05-.39.14-.56s.21-.3.36-.4.32-.18.51-.23c.14-.04.35-.07.62-.11.57-.07.99-.15,1.25-.24,0-.1,0-.16,0-.18,0-.29-.07-.49-.2-.61-.18-.16-.45-.24-.8-.24-.33,0-.57.06-.73.17s-.27.32-.35.62l-.69-.09c.06-.29.17-.53.31-.71s.35-.32.62-.42.58-.15.94-.15.64.04.86.12.38.19.49.31.18.29.22.48c.02.12.04.34.04.65v.94c0,.65.02,1.07.04,1.24s.09.34.18.5h-.73c-.07-.15-.12-.32-.14-.51ZM153.79,322.22c-.26.1-.64.19-1.15.27-.29.04-.49.09-.61.14s-.21.13-.28.23-.1.21-.1.33c0,.19.07.34.21.47s.35.19.62.19.51-.06.72-.18.37-.28.46-.49c.08-.16.11-.39.11-.7v-.26Z"/>
      <path d="M157.13,323.68l.1.62c-.2.04-.38.06-.53.06-.26,0-.45-.04-.59-.12s-.24-.19-.3-.32-.09-.41-.09-.83v-2.39h-.52v-.55h.52v-1.03l.7-.42v1.45h.71v.55h-.71v2.43c0,.2.01.33.04.39s.06.1.12.14.14.05.24.05c.08,0,.18,0,.31-.03Z"/>
      <path d="M160.66,322.97l.73.09c-.11.42-.33.75-.64.99s-.71.35-1.19.35c-.61,0-1.09-.19-1.44-.56s-.53-.9-.53-1.57.18-1.24.54-1.62.83-.58,1.4-.58,1.01.19,1.36.57.53.91.53,1.59c0,.04,0,.1,0,.19h-3.09c.03.46.15.8.39,1.05s.52.36.87.36c.26,0,.48-.07.66-.2s.33-.35.43-.65ZM158.35,321.83h2.32c-.03-.35-.12-.61-.27-.79-.22-.27-.51-.41-.87-.41-.32,0-.59.11-.81.32s-.34.5-.37.87Z"/>
      <path d="M162.46,320.96v-.8h.8v.8h-.8ZM162.46,324.31v-.8h.8v.8h-.8Z"/>
    </g>
    <text class="cls-11" transform="translate(173.69 230.58)"><tspan x="0" y="0">LOGO</tspan></text>
    <g>
      <polyline class="cls-10" points="213.39 238.41 213.39 241.06 210.74 241.06"/>
      <line class="cls-4" x1="205.12" y1="241.06" x2="151.71" y2="241.06"/>
      <polyline class="cls-10" points="148.9 241.06 146.25 241.06 146.25 238.41"/>
      <line class="cls-1" x1="146.25" y1="232.2" x2="146.25" y2="222.89"/>
      <polyline class="cls-10" points="146.25 219.78 146.25 217.13 148.9 217.13"/>
      <line class="cls-4" x1="154.52" y1="217.13" x2="207.93" y2="217.13"/>
      <polyline class="cls-10" points="210.74 217.13 213.39 217.13 213.39 219.78"/>
      <line class="cls-1" x1="213.39" y1="225.99" x2="213.39" y2="235.3"/>
    </g>
    <rect class="cls-5" x="145.46" y="256.1" width="67.15" height="19.44"/>
    <rect class="cls-5" x="145.46" y="290.71" width="67.15" height="19.44"/>
    <rect class="cls-5" x="145.46" y="325.31" width="67.15" height="19.44"/>
  </g>
</svg>